<?xml version="1.0" encoding="utf-8"?>
<!-- Generator: Adobe Illustrator 16.0.0, SVG Export Plug-In . SVG Version: 6.00 Build 0)  -->
<!DOCTYPE svg PUBLIC "-//W3C//DTD SVG 1.1//EN" "http://www.w3.org/Graphics/SVG/1.1/DTD/svg11.dtd">
<svg version="1.1" id="Layer_1" xmlns="http://www.w3.org/2000/svg" xmlns:xlink="http://www.w3.org/1999/xlink" x="0px" y="0px"
	 width="512px" height="512px" viewBox="0 0 512 512" enable-background="new 0 0 512 512" xml:space="preserve">
<path fill="#FFFFFF" stroke="#000000" stroke-width="4" d="M302.823,2.041C216.479-1.301,108.297,6.835,90.579,20.329
	c-19.266,14.672-28.351,432.998,0,460.49c28.352,27.49,311.002,35.224,335.917,10.311c24.51-24.512,24.193-260.083,6.07-389.071
	c-6.05-43.061-29.508-59.201-46.449-72.278C369.456,16.918,352.433,3.962,302.823,2.041z"/>
<path fill="#FFFFFF" stroke="#000000" stroke-width="4" d="M302.823,2.704C216.447,0.343,108.297,7.498,90.58,20.993
	c-19.266,14.672-28.351,432.998,0,460.488c28.352,27.492,311.001,35.226,335.917,10.31c24.51-24.51,25.622-260.291,6.071-389.07
	c-3.336-21.982-89.392,16.388-107.449,1.804C302.782,86.481,327.801,3.387,302.823,2.704z"/>
<line fill="none" stroke="#000000" stroke-width="2" x1="118.585" y1="75.312" x2="281.818" y2="71.877"/>
<line fill="none" stroke="#000000" stroke-width="2" x1="117.212" y1="118.064" x2="280.445" y2="114.628"/>
<line fill="none" stroke="#000000" stroke-width="2" x1="119.96" y1="157.294" x2="408.729" y2="153.859"/>
<line fill="none" stroke="#000000" stroke-width="2" x1="121.332" y1="200.047" x2="408.729" y2="196.61"/>
<line fill="none" stroke="#000000" stroke-width="2" x1="119.96" y1="241.146" x2="408.729" y2="237.708"/>
<line fill="none" stroke="#000000" stroke-width="2" x1="121.332" y1="283.896" x2="408.729" y2="280.461"/>
<line fill="none" stroke="#000000" stroke-width="2" x1="121.692" y1="322.248" x2="410.462" y2="318.812"/>
<line fill="none" stroke="#000000" stroke-width="2" x1="123.065" y1="365.001" x2="410.462" y2="361.562"/>
<line fill="none" stroke="#000000" stroke-width="2" x1="121.692" y1="406.1" x2="410.462" y2="402.662"/>
<line fill="none" stroke="#000000" stroke-width="2" x1="123.065" y1="448.85" x2="410.462" y2="445.413"/>
</svg>
