<?xml version="1.0" encoding="utf-8"?>
<!-- Generator: Adobe Illustrator 16.0.0, SVG Export Plug-In . SVG Version: 6.00 Build 0)  -->
<!DOCTYPE svg PUBLIC "-//W3C//DTD SVG 1.1//EN" "http://www.w3.org/Graphics/SVG/1.1/DTD/svg11.dtd">
<svg version="1.1" id="Layer_1" xmlns="http://www.w3.org/2000/svg" xmlns:xlink="http://www.w3.org/1999/xlink" x="0px" y="0px"
	 width="512px" height="512px" viewBox="0 0 512 512" enable-background="new 0 0 512 512" xml:space="preserve">
<polygon fill="#E44D26" points="34.181,393.57 13.25,153.201 243.25,153.201 222.297,393.533 128.108,420.268 "/>
<polygon fill="#F16529" points="128.249,399.832 204.357,378.229 222.262,172.854 128.249,172.854 "/>
<polygon fill="#EBEBEB" points="128.249,262.004 90.148,262.004 87.517,231.815 128.249,231.815 128.249,202.335 128.149,202.335 
	56.049,202.335 56.738,210.245 63.815,291.484 128.249,291.484 "/>
<polygon fill="#EBEBEB" points="128.249,338.566 128.123,338.602 96.056,329.736 94.006,306.225 78.424,306.225 65.102,306.225 
	69.136,352.514 128.117,369.275 128.249,369.238 "/>
<path d="M34.648,87.879H49.28v14.802h13.386V87.879H77.3v44.822H62.667v-15.009H49.282v15.009H34.65V87.879H34.648z"/>
<path d="M96.542,102.743H83.66V87.879h40.403v14.864h-12.888v29.958H96.542V102.743L96.542,102.743z"/>
<path d="M130.475,87.879h15.257l9.387,15.75l9.375-15.75h15.264v44.822h-14.573v-22.216l-10.067,15.937h-0.252l-10.075-15.937
	v22.216h-14.317L130.475,87.879L130.475,87.879z"/>
<path d="M187.041,87.879h14.636v30.006h20.577v14.816h-35.213V87.879z"/>
<polygon fill="#FFFFFF" points="128.149,262.004 128.149,291.484 163.605,291.484 160.264,329.717 128.149,338.592 128.149,369.262 
	187.178,352.514 187.611,347.532 194.378,269.92 195.08,262.004 187.321,262.004 "/>
<polygon fill="#FFFFFF" points="128.149,202.335 128.149,220.645 128.149,231.743 128.149,231.815 197.608,231.815 197.608,231.815 
	197.7,231.815 198.278,225.189 199.59,210.245 200.278,202.335 "/>
<path d="M332.892,195.201l-4.768,28.715h97.028l-3.027,18.548h-97.094l-4.704,28.714h97.028l-5.411,32.75l-39.107,15.6l-33.89-15.6
	l2.318-14.201h-23.838l-5.67,34.457l56.053,25.844l64.622-25.844l8.568-51.841l1.739-10.399l11.018-66.742H332.892L332.892,195.201z
	"/>
</svg>
