<?xml version="1.0" encoding="utf-8"?>
<!-- Generator: Adobe Illustrator 16.0.0, SVG Export Plug-In . SVG Version: 6.00 Build 0)  -->
<!DOCTYPE svg PUBLIC "-//W3C//DTD SVG 1.1//EN" "http://www.w3.org/Graphics/SVG/1.1/DTD/svg11.dtd">
<svg version="1.1" id="Layer_1" xmlns="http://www.w3.org/2000/svg" xmlns:xlink="http://www.w3.org/1999/xlink" x="0px" y="0px"
	 width="512px" height="512px" viewBox="0 0 512 512" enable-background="new 0 0 512 512" xml:space="preserve">
<path fill="#131B28" d="M224.477,238.132l0.001-0.005L221.3,249.39L224.477,238.132L224.477,238.132z"/>
<path fill="#131B28" d="M240.821,262.583l-3.502-0.021L240.821,262.583z"/>
<path fill="#131B28" d="M239.92,279.402h0.003l-20.981,0.076L239.92,279.402L239.92,279.402z"/>
<path fill="#131B28" d="M244.319,262.604l-3.503-0.021L244.319,262.604z"/>
<path fill="#131B28" d="M241.759,277.973l3.655-13.938l-3.655,13.94V277.973L241.759,277.973z"/>
<path fill="#131B28" d="M319.006,213.786l-6.809,32.005L319.006,213.786z"/>
<path fill="#131B28" d="M301.505,213.786l-5.169,23.909l5.169-23.912V213.786z"/>
<path fill="#131B28" d="M317.84,212.346h-14.558c-0.809,0-1.61,0.648-1.782,1.438l-5.169,23.911l-5.169,23.912
	c-0.171,0.789-0.973,1.435-1.779,1.435h-8.833h-1.472c-10.194,0-9.016-7.051-6.927-16.711c0.021-0.097,0.042-0.192,0.062-0.292
	l0.229-1.217c0.016-0.079,0.031-0.158,0.044-0.229l0.466-2.479l0.498-2.657c0.152-0.801,0.382-1.972,0.532-2.708l2.349-11.479
	l2.352-11.48c0.163-0.792-0.367-1.442-1.176-1.442h-14.942c-0.808,0-1.607,0.65-1.772,1.44l-3.213,15.243l-3.212,15.242
	c-0.003,0.006-0.004,0.016-0.005,0.023l-0.299,1.417c-3.701,16.896-2.719,33.007,17.394,33.512c0.329,0.01,0.583,0.012,0.583,0.012
	h31.571c0.809,0,1.608-0.648,1.776-1.439l6.809-32.003l6.809-32.006C319.172,212.994,318.647,212.346,317.84,212.346L317.84,212.346
	z"/>
<path fill="#131B28" d="M375.916,263.208c0.81,0,1.338,0.648,1.176,1.439l-1.414,6.909"/>
<path fill="#131B28" d="M374.268,278.469l1.412-6.913l-1.414,6.915C374.266,278.469,374.267,278.469,374.268,278.469
	L374.268,278.469z"/>
<path fill="#131B28" d="M372.494,279.924c0.002,0,0.005-0.002,0.007-0.002c-4.285,0.034-17.159,0.132-26.835,0.132
	C357.442,280.054,372.493,279.925,372.494,279.924L372.494,279.924z"/>
<path fill="#131B28" d="M336.98,254.309c-0.012-0.757,0.85-2.06,1.658-2.06l-1.818-0.03
	C336.001,260.458,336.98,254.309,336.98,254.309L336.98,254.309z"/>
<path fill="#131B28" d="M346.991,280.051c-0.092,0-0.187,0-0.279,0.002C346.805,280.051,346.899,280.051,346.991,280.051z"/>
<path fill="#131B28" d="M375.916,263.208c0.81,0,1.338,0.648,1.176,1.439l-1.414,6.909l-0.23,1.127"/>
<path fill="#131B28" d="M353.885,280.035h-0.06H353.885z"/>
<path fill="#131B28" d="M350.31,280.046h-0.207H350.31z"/>
<path fill="#131B28" d="M349.22,280.049c-0.115,0-0.229,0-0.342,0.002C348.99,280.049,349.104,280.049,349.22,280.049z"/>
<path fill="#131B28" d="M348.11,280.051h-0.301H348.11z"/>
<path fill="#131B28" d="M350.102,280.046c-0.295,0-0.591,0.002-0.883,0.002C349.511,280.048,349.807,280.046,350.102,280.046z"/>
<path fill="#131B28" d="M353.827,280.035c-1.178,0.004-2.354,0.009-3.513,0.012C351.474,280.045,352.65,280.039,353.827,280.035z"/>
<path fill="#131B28" d="M372.504,279.921L372.504,279.921c-3.139,0.025-10.893,0.083-18.625,0.113
	C361.607,280.006,369.362,279.946,372.504,279.921z"/>
<path fill="#131B28" d="M374.268,278.473l1.183-5.789l-1.185,5.793C374.266,278.475,374.267,278.475,374.268,278.473
	L374.268,278.473z"/>
<path fill="#131B28" d="M348.879,280.051h-0.769H348.879z"/>
<path fill="#131B28" d="M346.707,280.053h-1.039H346.707z"/>
<path fill="#131B28" d="M347.808,280.051h-0.819H347.808z"/>
<path fill="#131B28" d="M134.849,254.482l2.261-10.024l-2.585,11.458l-2.481,11.673l2.175-10.231
	C134.386,256.565,134.671,255.272,134.849,254.482L134.849,254.482z"/>
<path fill="#131B28" d="M161.916,212.177h-15.988c-0.809,0-1.615,0.646-1.796,1.433l-1.516,6.691l-1.516,6.694
	c-0.178,0.787,0.337,1.433,1.146,1.433h16.112c0.808,0,1.611-0.646,1.785-1.435l1.465-6.691l1.465-6.687v-0.002
	C163.245,212.823,162.725,212.177,161.916,212.177L161.916,212.177z"/>
<path fill="#131B28" d="M158.437,234.436v-0.002l-4.689,21.693L158.437,234.436z"/>
<path fill="#131B28" d="M111.992,306.314c0,0,8.059,0.104,13.182,0.104c-3.892,0-10.319-0.071-13.189-0.105
	C111.988,306.312,111.99,306.314,111.992,306.314L111.992,306.314z"/>
<path fill="#131B28" d="M139.371,234.433l-2.264,10.024L139.371,234.433z"/>
<path fill="#131B28" d="M157.28,232.999h-16.114c-0.808,0-1.616,0.646-1.794,1.435l-2.264,10.025l-2.261,10.024
	c-0.178,0.789-0.463,2.083-0.63,2.875l-2.175,10.232l-2.173,10.232c-0.169,0.788-0.516,2.064-0.775,2.83c0,0-3.01,8.957-8.071,8.855
	c-0.215-0.005-0.424-0.007-0.632-0.012c-2.452-0.047-4.379-0.081-4.379-0.081h-0.003c-0.807-0.012-1.618,0.617-1.806,1.402
	l-1.671,7.025l-1.669,7.021c-0.188,0.785,0.319,1.434,1.123,1.447c2.87,0.034,9.297,0.106,13.189,0.106
	c12.641,0,19.305-7.004,23.577-27.158l4.999-23.131l4.689-21.694C158.608,233.645,158.087,232.999,157.28,232.999L157.28,232.999z"
	/>
<path fill="#131B28" d="M386.184,279.233c-0.808,0-1.331-0.647-1.162-1.44l12.122-56.777"/>
<path fill="#131B28" d="M403.03,277.791l4.902-24.233L403.03,277.791z"/>
<path fill="#131B28" d="M385.197,278.514c-0.098-0.396-0.041-1.364,0.132-2.157l5.752-26.951l-6.061,28.388
	c-0.17,0.792,0.354,1.439,1.162,1.439h1.472C386.846,279.233,385.295,278.91,385.197,278.514L385.197,278.514z"/>
<path fill="#131B28" d="M402.073,278.91c-0.439,0.178-1.463,0.323-2.271,0.323h1.472c0.808,0,1.602-0.647,1.761-1.442l0.292-1.439
	C403.166,277.144,402.514,278.731,402.073,278.91L402.073,278.91z"/>
<path fill="#131B28" d="M405.485,265.675l2.164-10.696c-0.001,0.007-0.002,0.016-0.004,0.021L405.485,265.675L405.485,265.675z"/>
<path fill="#131B28" d="M453.314,224.819l0.668,2.759c0.184,0.79-0.327,1.431-1.134,1.433"/>
<path fill="#131B28" d="M403.324,276.353l2.158-10.677L403.324,276.353z"/>
<path fill="#131B28" d="M452.65,221.993l0.661,2.826L452.65,221.993z"/>
<path fill="#131B28" d="M407.647,254.979c0.16-0.792,0.427-2.074,0.595-2.858l2.311-10.827l-2.617,12.265L407.647,254.979
	L407.647,254.979z"/>
<path fill="#131B28" d="M397.343,220.085c-0.161,0.764-0.367,1.729-0.504,2.369l-5.753,26.952l6.061-28.39L397.343,220.085
	L397.343,220.085z"/>
<path fill="#131B28" d="M453.979,227.578l-0.669-2.759l-0.66-2.826l-0.335-1.43c-1.308-5.085-5.151-8.02-13.492-8.02l-12.989-0.014
	l-11.961-0.014h-1.027h-12.432c-0.808,0-1.608,0.646-1.774,1.438h-0.001l-0.595,2.812l-0.702,3.321l-0.195,0.931l-6.061,28.39
	l-5.753,26.951c-0.172,0.793-0.229,1.762-0.131,2.157c0.098,0.396,1.647,0.72,2.456,0.72h12.144c0.808,0,1.831-0.146,2.271-0.323
	c0.441-0.178,1.093-1.767,1.254-2.559l2.158-10.677l2.16-10.674c0.001-0.005,0.002-0.014,0.004-0.021l0.288-1.421l2.618-12.264
	l2.312-10.833c0.172-0.787,0.968-1.431,1.775-1.433l38.205-0.018C453.652,229.008,454.162,228.367,453.979,227.578L453.979,227.578z
	"/>
<path fill="#131B28" d="M503.162,202.632c-0.809,0.005-2.132,0.01-2.941,0.01h-12.228c-0.81,0-1.846,0.546-2.301,1.214
	l-27.041,39.616c-0.458,0.669-0.979,0.569-1.157-0.217l-1.99-8.729c-0.179-0.789-0.988-1.433-1.797-1.433h-17.384
	c-0.81,0-1.288,0.634-1.066,1.412l7.788,27.288c0.223,0.778,0.239,2.056,0.039,2.839l-3.396,13.207
	c-0.201,0.784,0.296,1.426,1.105,1.426h17.182c0.807,0,1.634-0.642,1.834-1.426l3.396-13.207c0.2-0.783,0.763-1.953,1.25-2.6
	l43.899-58.266c0.488-0.646,0.224-1.171-0.584-1.166L503.162,202.632L503.162,202.632z"/>
<path fill="#131B28" d="M365.052,236.808l-0.001-0.016c-0.102,0.877-0.91,1.521-1.719,1.521h-22.04
	c-0.761,0-1.148-0.518-1.036-1.157c0.006-0.019,0.009-0.035,0.021-0.051c0,0-0.008,0.002-0.014,0.007
	c0.005-0.026,0.005-0.048,0.011-0.074c0,0,0.042-0.156,0.102-0.375c2.105-5.597,6.393-9.27,14.451-9.27
	C363.898,227.392,365.669,231.825,365.052,236.808L365.052,236.808z M358.587,211.368c-28.291,0-34.994,17.171-38.756,34.503
	c-3.761,17.665-3.437,34.182,25.838,34.182h1.038c0.093-0.002,0.188-0.002,0.28-0.002h0.82h0.3h0.769
	c0.113-0.002,0.228-0.002,0.343-0.002c0.292,0,0.587-0.002,0.882-0.002h0.207c1.158-0.002,2.334-0.008,3.512-0.012h0.06
	c7.731-0.03,15.485-0.089,18.627-0.113c0.802-0.012,1.588-0.66,1.754-1.444l1.186-5.793l0.23-1.128l1.413-6.908
	c0.162-0.792-0.366-1.44-1.176-1.44h-26.318c-10.467,0-13.576-2.781-12.431-10.959h42.071l-0.004,0.005
	c0.011,0,0.02-0.005,0.028-0.005c0.67-0.012,1.287-0.472,1.532-1.085c0.047-0.118,0.087-0.241,0.103-0.368l-0.005,0.005
	c6.247-23.562,4.456-39.431-22.306-39.431L358.587,211.368z"/>
<path fill="#131B28" d="M224.875,236.718l-0.398,1.41c0,0.005-0.001,0.005-0.001,0.005l-3.176,11.258l-3.176,11.256
	c-0.22,0.777-1.06,1.413-1.87,1.413h-16.814c-12.754,0-15.86-9.975-12.754-24.688c3.105-15.049,9.193-24.405,21.746-25.352
	C225.585,210.726,229.017,222.792,224.875,236.718L224.875,236.718z M236.406,261.194c0,0,7.927-19.248,9.728-30.367
	c2.456-14.883-4.996-36.467-33.779-36.467c-28.619,0-41.045,20.607-45.788,43.01c-4.741,22.564,1.471,42.354,29.927,42.191
	l22.449-0.083l20.981-0.076c0.808-0.008,1.634-0.648,1.84-1.429l3.655-13.94c0.204-0.782-0.291-1.426-1.098-1.431l-3.503-0.021
	l-3.502-0.021c-0.688-0.005-1.081-0.449-0.997-1.039c0.015-0.105,0.04-0.215,0.085-0.328L236.406,261.194z"/>
<path fill="#131B28" d="M378.078,248.312c0,0.532-0.432,0.965-0.965,0.965c-0.532,0-0.966-0.433-0.966-0.965
	s0.434-0.963,0.966-0.963C377.646,247.349,378.078,247.779,378.078,248.312z"/>
<path fill="#0868AC" d="M17.879,223.284c-7.902,11.358-6.918,26.134-0.882,38.203c0.144,0.288,0.294,0.573,0.442,0.857
	c0.095,0.181,0.184,0.366,0.282,0.544c0.056,0.106,0.118,0.211,0.176,0.312c0.103,0.193,0.208,0.375,0.314,0.563
	c0.188,0.33,0.38,0.659,0.577,0.987c0.108,0.181,0.216,0.361,0.329,0.542c0.217,0.352,0.44,0.699,0.669,1.046
	c0.095,0.148,0.188,0.297,0.285,0.439c0.314,0.47,0.636,0.938,0.968,1.398c0.008,0.012,0.018,0.025,0.028,0.037
	c0.052,0.073,0.11,0.146,0.164,0.22c0.287,0.396,0.583,0.786,0.883,1.174c0.11,0.141,0.221,0.282,0.332,0.423
	c0.267,0.336,0.54,0.669,0.816,1.003c0.103,0.124,0.207,0.25,0.312,0.372c0.371,0.437,0.75,0.872,1.136,1.298
	c0.007,0.008,0.016,0.017,0.023,0.024c0.016,0.019,0.03,0.029,0.044,0.048c0.377,0.412,0.764,0.814,1.155,1.218
	c0.121,0.125,0.245,0.25,0.37,0.373c0.303,0.306,0.611,0.605,0.922,0.904c0.126,0.12,0.251,0.243,0.377,0.358
	c0.416,0.392,0.836,0.775,1.264,1.15c0.007,0.007,0.013,0.013,0.02,0.016c0.073,0.065,0.148,0.126,0.22,0.188
	c0.377,0.326,0.761,0.65,1.148,0.969c0.157,0.128,0.317,0.253,0.476,0.38c0.316,0.253,0.635,0.503,0.957,0.748
	c0.17,0.13,0.34,0.26,0.512,0.389c0.355,0.262,0.713,0.519,1.074,0.771c0.132,0.096,0.259,0.188,0.391,0.277
	c0.037,0.026,0.07,0.053,0.107,0.077c0.343,0.236,0.693,0.463,1.043,0.689c0.15,0.101,0.299,0.204,0.451,0.302
	c0.537,0.339,1.082,0.676,1.633,0.999c0.149,0.087,0.301,0.17,0.451,0.255c0.405,0.234,0.812,0.463,1.226,0.688
	c0.224,0.12,0.453,0.232,0.678,0.349c0.292,0.152,0.581,0.308,0.877,0.455c0.067,0.033,0.137,0.066,0.203,0.099
	c0.119,0.058,0.239,0.113,0.358,0.173c0.459,0.22,0.922,0.436,1.39,0.644c0.1,0.045,0.195,0.088,0.294,0.132
	c0.536,0.234,1.076,0.459,1.621,0.674c0.131,0.054,0.263,0.104,0.395,0.155c0.504,0.194,1.016,0.386,1.53,0.566
	c0.065,0.023,0.127,0.045,0.192,0.067c0.563,0.197,1.133,0.379,1.706,0.558c0.137,0.04,0.274,0.084,0.412,0.123
	c0.583,0.176,1.16,0.387,1.761,0.497c38.215,6.969,49.316-22.965,49.316-22.965c-9.323,12.146-25.872,15.351-41.551,11.783
	c-0.594-0.134-1.17-0.319-1.75-0.49c-0.147-0.044-0.292-0.088-0.437-0.133c-0.565-0.173-1.127-0.355-1.685-0.548
	c-0.076-0.028-0.154-0.056-0.231-0.084c-0.5-0.176-0.994-0.36-1.486-0.551c-0.139-0.056-0.278-0.108-0.417-0.163
	c-0.54-0.214-1.075-0.436-1.604-0.667c-0.109-0.046-0.213-0.096-0.32-0.142c-0.455-0.207-0.905-0.414-1.353-0.63
	c-0.13-0.062-0.259-0.123-0.391-0.188c-0.352-0.172-0.7-0.354-1.047-0.532c-0.232-0.123-0.468-0.238-0.699-0.366
	c-0.424-0.227-0.84-0.463-1.254-0.703c-0.14-0.079-0.282-0.155-0.423-0.236c-0.551-0.324-1.095-0.66-1.634-1.001
	c-0.148-0.095-0.294-0.196-0.44-0.293c-0.391-0.252-0.78-0.509-1.163-0.773c-0.127-0.085-0.25-0.178-0.375-0.263
	c-0.37-0.262-0.735-0.526-1.099-0.795c-0.165-0.122-0.327-0.246-0.487-0.368c-0.333-0.255-0.664-0.511-0.992-0.775
	c-0.148-0.117-0.296-0.235-0.442-0.354c-0.417-0.342-0.829-0.687-1.235-1.04c-0.042-0.037-0.089-0.074-0.135-0.114
	c-0.44-0.386-0.872-0.782-1.298-1.181c-0.124-0.118-0.245-0.232-0.366-0.352c-0.316-0.301-0.627-0.604-0.933-0.914
	c-0.123-0.123-0.245-0.243-0.366-0.365c-0.389-0.398-0.771-0.802-1.145-1.211c-0.019-0.021-0.038-0.039-0.057-0.061
	c-0.396-0.432-0.782-0.875-1.161-1.321c-0.103-0.123-0.203-0.24-0.304-0.36c-0.283-0.341-0.562-0.686-0.835-1.033
	c-0.103-0.124-0.205-0.253-0.307-0.382c-0.329-0.427-0.65-0.853-0.965-1.285c-8.705-11.874-11.833-28.251-4.875-41.701"/>
<path fill="#0868AC" d="M42.408,213.715c-5.714,8.224-5.404,19.232-0.946,27.929c0.748,1.458,1.587,2.873,2.527,4.22
	c0.856,1.227,1.805,2.687,2.942,3.673c0.412,0.454,0.842,0.896,1.282,1.331c0.111,0.113,0.225,0.222,0.338,0.333
	c0.427,0.414,0.861,0.821,1.31,1.217c0.019,0.014,0.035,0.032,0.053,0.046c0.004,0.005,0.009,0.007,0.012,0.012
	c0.497,0.436,1.009,0.854,1.53,1.266c0.116,0.088,0.23,0.181,0.347,0.271c0.522,0.4,1.054,0.794,1.6,1.169
	c0.017,0.011,0.031,0.023,0.047,0.035c0.241,0.167,0.486,0.321,0.73,0.481c0.117,0.076,0.228,0.157,0.346,0.229
	c0.39,0.25,0.785,0.494,1.186,0.727c0.057,0.036,0.112,0.065,0.168,0.098c0.346,0.199,0.697,0.395,1.048,0.585
	c0.123,0.068,0.248,0.13,0.373,0.195c0.243,0.127,0.486,0.256,0.733,0.379c0.037,0.018,0.075,0.034,0.111,0.051
	c0.503,0.248,1.011,0.486,1.53,0.712c0.111,0.05,0.226,0.093,0.338,0.14c0.415,0.176,0.833,0.348,1.254,0.509
	c0.178,0.067,0.359,0.133,0.537,0.197c0.382,0.142,0.765,0.271,1.152,0.4c0.174,0.056,0.346,0.113,0.521,0.167
	c0.55,0.171,1.093,0.386,1.665,0.481c29.506,4.889,36.318-17.83,36.318-17.83c-6.141,8.844-18.032,13.063-30.721,9.77
	c-0.564-0.148-1.119-0.31-1.671-0.484c-0.169-0.051-0.335-0.106-0.502-0.162c-0.393-0.127-0.782-0.261-1.169-0.403
	c-0.177-0.064-0.354-0.129-0.527-0.196c-0.424-0.162-0.843-0.331-1.258-0.507c-0.113-0.048-0.228-0.092-0.339-0.143
	c-0.521-0.227-1.034-0.465-1.539-0.715c-0.261-0.127-0.516-0.262-0.772-0.394c-0.148-0.076-0.297-0.153-0.445-0.229
	c-0.329-0.178-0.655-0.363-0.977-0.551c-0.077-0.044-0.157-0.086-0.234-0.132c-0.399-0.233-0.793-0.474-1.183-0.722
	c-0.121-0.076-0.236-0.16-0.356-0.238c-0.257-0.167-0.514-0.335-0.766-0.507c-0.544-0.375-1.073-0.769-1.595-1.167
	c-0.121-0.095-0.241-0.188-0.359-0.282c-5.554-4.386-9.957-10.378-12.05-17.174c-2.194-7.047-1.721-14.958,2.08-21.379"/>
<path fill="#0868AC" d="M63.038,206.566c-3.369,4.958-3.7,11.115-1.362,16.591c2.465,5.812,7.516,10.371,13.412,12.533
	c0.243,0.091,0.486,0.171,0.732,0.254c0.108,0.033,0.214,0.07,0.323,0.102c0.347,0.109,0.692,0.236,1.051,0.304
	c16.292,3.147,20.711-8.361,21.887-10.055c-3.871,5.574-10.376,6.912-18.358,4.975c-0.63-0.154-1.323-0.381-1.931-0.597
	c-0.779-0.278-1.547-0.594-2.293-0.953c-1.417-0.681-2.769-1.507-4.021-2.454c-7.142-5.419-11.579-15.757-6.918-24.177"/>
<path fill="#0868AC" d="M246.528,303.129l-4.696,10.695h-5.185l0.424-9.718l-3.816,9.718h-5.021l-0.132-10.695l0.555-2.641h3.555
	l-0.685,10.564l3.946-10.564h4.956l-0.358,10.695l3.914-10.695h3.097L246.528,303.129L246.528,303.129z"/>
<path fill="#0868AC" d="M254.71,306.296c0.457-2.089,0.326-2.479-0.75-2.479h-1.631l-1.044,4.893l-1.598,5.117h-3.032l2.478-11.607
	l0.36-1.696h2.771l0.359,0.782c0,0,1.598-0.944,3.162-0.944c3.327,0,3.067,2.509,2.348,5.935L254.71,306.296L254.71,306.296z"/>
<path fill="#0868AC" d="M264.56,298.824c-1.335,0-2.183-0.391-1.858-2.021c0.358-1.631,1.402-2.022,2.707-2.022
	s2.185,0.392,1.826,2.022C266.907,298.401,265.865,298.824,264.56,298.824L264.56,298.824z M263.127,313.826h-3.003l0.588-5.218
	l1.044-4.825l-2.086-0.459l0.586-2.835h5.705L263.127,313.826L263.127,313.826z"/>
<path fill="#0868AC" d="M276.136,303.318l-3.749,0.459l-1.078,5.087c-0.295,1.403-0.295,1.794,0.946,1.794h2.511l-0.522,2.674
	c0,0-2.28,0.685-3.261,0.685c-3.848,0-3.816-2.12-3.13-5.284l1.044-4.988l-2.088-0.456l0.619-2.837h2.188l1.238-3.361h2.968
	l-0.72,3.361h3.653L276.136,303.318L276.136,303.318z"/>
<path fill="#0868AC" d="M283.928,303.488c-1.759,0-2.674,0.915-3.031,2.544l5.021-0.424
	C286.146,304.5,285.918,303.488,283.928,303.488L283.928,303.488z M280.407,308.444c-0.229,1.632,0.392,2.185,2.477,2.185h5.25
	l-0.521,2.479c0,0-3.162,0.88-5.511,0.88c-5.837,0-5.902-3.29-5.151-6.814c0.749-3.457,2.086-6.879,7.728-6.879
	c5.446,0,5.708,3.293,4.37,8.15H280.407L280.407,308.444z"/>
<path fill="#0868AC" d="M301.012,313.822h-2.999l0.587-5.217l2.12-9.913l-2.088-0.488l0.62-2.838h5.707L301.012,313.822
	L301.012,313.822z"/>
<path fill="#0868AC" d="M311.848,303.488c-1.762,0-2.674,0.915-3.034,2.544l5.022-0.424
	C314.063,304.5,313.836,303.488,311.848,303.488L311.848,303.488z M308.325,308.444c-0.229,1.632,0.393,2.185,2.479,2.185h5.25
	l-0.522,2.479c0,0-3.163,0.88-5.512,0.88c-5.838,0-5.9-3.29-5.15-6.814c0.75-3.457,2.087-6.879,7.728-6.879
	c5.446,0,5.707,3.293,4.371,8.15H308.325L308.325,308.444z"/>
<path fill="#0868AC" d="M330.724,303.65c0,0-3.815,0.032-4.858,0.032c-2.218,0-2.447,0.684-2.608,1.4l-0.132,0.652l7.044,0.523
	c0,0,0.032,2.249-0.262,3.521c-0.424,2.12-2.608,4.271-6.554,4.271c-1.958,0-5.12-0.748-5.12-0.748l0.554-2.575h4.859
	c2.152,0,2.446-0.589,2.578-1.174l0.162-0.848l-6.913-0.522c0,0-0.261-1.729,0.097-3.455c0.523-2.35,2.673-4.37,6.62-4.37
	c1.957,0,5.12,0.715,5.12,0.715L330.724,303.65L330.724,303.65z"/>
<path fill="#0868AC" d="M343.835,303.65c0,0-3.814,0.032-4.858,0.032c-2.217,0-2.445,0.684-2.608,1.4l-0.132,0.652l7.046,0.523
	c0,0,0.032,2.249-0.263,3.521c-0.423,2.12-2.607,4.271-6.555,4.271c-1.955,0-5.119-0.748-5.119-0.748l0.554-2.575h4.86
	c2.15,0,2.445-0.589,2.576-1.174l0.162-0.848l-6.913-0.522c0,0-0.26-1.729,0.098-3.455c0.522-2.35,2.673-4.37,6.62-4.37
	c1.955,0,5.119,0.715,5.119,0.715L343.835,303.65L343.835,303.65z"/>
<path fill="#0868AC" d="M347.939,315.946h-2.606l0.097-1.958c-0.947-0.062-1.435-0.747-1.207-1.892
	c0.359-1.629,1.37-2.021,2.707-2.021c1.305,0,2.182,0.392,1.825,2.021L347.939,315.946L347.939,315.946z"/>
<path fill="#0868AC" d="M365.384,303.783c-1.956,0-2.64,1.174-3.097,3.325c-0.457,2.153-0.327,3.424,1.63,3.424h2.707l1.5-6.749
	H365.384z M369.852,312.097l-0.359,1.729l-2.737-0.033l-0.393-0.847c0,0-2.413,1.041-4.042,1.041c-4.176,0-4.371-3.423-3.621-6.879
	c0.75-3.521,2.381-6.849,6.522-6.849c1.501,0,3.521,0.75,3.521,0.75l1.663-5.641h3.001L369.852,312.097L369.852,312.097z"/>
<path fill="#0868AC" d="M380.647,303.65c-2.543,0-3.36,1.433-3.815,3.521c-0.424,2.12-0.228,3.555,2.282,3.555
	c2.609,0,3.393-1.402,3.848-3.555C383.42,305.147,383.288,303.65,380.647,303.65L380.647,303.65z M378.431,314.02
	c-5.381,0-5.806-3.357-5.088-6.849c0.75-3.488,2.642-6.813,8.022-6.813c5.347,0,5.838,3.325,5.086,6.813
	C385.702,310.727,383.811,314.02,378.431,314.02z"/>
<path fill="#0868AC" d="M408.956,313.822l0.588-5.152l0.292-1.467c0.425-1.956,0.686-3.391-1.37-3.391h-1.597
	c0.065,1.011-0.131,2.152-0.392,3.358l-1.401,6.651h-3.033l0.587-5.152l0.292-1.467c0.426-1.956,0.685-3.391-1.367-3.391h-1.306
	l-2.152,10.01h-3.49l2.838-13.335h2.739l0.423,0.814c0,0,1.86-0.979,3.36-0.979c1.141,0,1.989,0.523,2.283,1.174
	c0.651-0.359,2.512-1.174,3.85-1.174c4.17,0,4.042,3.391,3.291,6.849l-1.402,6.651H408.956L408.956,313.822z"/>
<path fill="#0868AC" d="M422.816,303.65c-2.545,0-3.36,1.433-3.816,3.521c-0.423,2.12-0.227,3.555,2.282,3.555
	c2.608,0,3.393-1.402,3.85-3.555C425.587,305.147,425.457,303.65,422.816,303.65z M420.599,314.02c-5.383,0-5.805-3.357-5.087-6.849
	c0.75-3.488,2.641-6.813,8.022-6.813c5.348,0,5.837,3.325,5.085,6.813C427.871,310.727,425.979,314.02,420.599,314.02z"/>
<path fill="#0868AC" d="M437.682,306.296c0.455-2.089,0.325-2.479-0.749-2.479h-1.632l-1.044,4.893l-1.599,5.117h-3.031
	l2.478-11.607l0.359-1.696h2.772l0.357,0.782c0,0,1.598-0.944,3.165-0.944c3.324,0,3.062,2.509,2.345,5.935L437.682,306.296
	L437.682,306.296z"/>
<path fill="#0868AC" d="M449.361,303.488c-1.759,0-2.674,0.915-3.031,2.544l5.019-0.424
	C451.579,304.5,451.349,303.488,449.361,303.488L449.361,303.488z M445.84,308.444c-0.228,1.632,0.391,2.185,2.478,2.185h5.25
	l-0.521,2.479c0,0-3.164,0.88-5.512,0.88c-5.837,0-5.901-3.29-5.153-6.814c0.751-3.457,2.089-6.879,7.729-6.879
	c5.444,0,5.708,3.293,4.37,8.15H445.84L445.84,308.444z"/>
<path fill="#0868AC" d="M457.409,314.021c-1.37,0-2.215-0.391-1.856-1.987c0.323-1.635,1.336-2.023,2.707-2.023
	c1.27,0,2.149,0.389,1.825,2.023C459.724,313.599,458.683,314.021,457.409,314.021z"/>
</svg>
