<?xml version="1.0" encoding="utf-8"?>
<!-- Generator: Adobe Illustrator 16.0.0, SVG Export Plug-In . SVG Version: 6.00 Build 0)  -->
<!DOCTYPE svg PUBLIC "-//W3C//DTD SVG 1.1//EN" "http://www.w3.org/Graphics/SVG/1.1/DTD/svg11.dtd">
<svg version="1.1" id="Layer_1" xmlns="http://www.w3.org/2000/svg" xmlns:xlink="http://www.w3.org/1999/xlink" x="0px" y="0px"
	 width="507.844px" height="509.895px" viewBox="0 0 507.844 509.895" enable-background="new 0 0 507.844 509.895"
	 xml:space="preserve">
<title>Layer 1</title>
<path id="path1291" d="M155.347,384.256c4.342-8.402,5.292-18.973,6.22-28.53c-0.166-12.728-6.485-24.338-10.846-36.083
	c-8.306-21.352-16.255-42.711-21.173-65.108c-3.853-17.138-4.882-34.796-3.229-52.249c4.334-19.111,19.831-32.786,35.27-43.707
	c24.584-16.626,48.937-26.3,78.226-27.115c35.176-0.346,71.16,2.493,103.252,17.832c13.621,7.358,20.105,20.67,21.643,35.574
	c-0.824,19.173-3.84,39.054-13.848,55.664c-9.527,13.927-20.613,26.774-33,38.217c-8.801,7.324-17.004,15.224-25.168,23.239
	c-7.484,9.308-15.314,18.504-20.947,29.051c-4.05,8.816-3.642,18.381-3.664,27.841c0.443,9.032-0.071,17.857-1.546,26.745
	l-23.653,11.745c1.259-8.836,2.376-17.521,1.71-26.515c-0.015-9.683-0.59-19.607,3.277-28.711
	c5.043-11.164,13.278-20.284,20.665-30.02c8.006-8.254,16.221-16.238,25.092-23.58c12.73-11.064,23.83-23.986,33.635-37.704
	c10.275-15.798,13.65-35.322,14.275-53.944c-1.723-14.054-6.844-26.453-20.082-33.381c-31.646-15.938-67.418-18.474-102.377-16.898
	c-16.565,0.796-74.585,20.697-33.457,2.583c-15.387,10.239-30.574,23.153-35.836,41.49c-2.148,17.181-1.114,34.735,2.316,51.701
	c5.47,22.087,12.044,43.812,21.228,64.699c4.531,12.041,11.455,23.771,11.754,36.846c-0.906,10.139-2.624,20.19-5.007,30.074
	L155.347,384.256z"/>
<path id="path1293" d="M174.509,371.502c9.284,3.402,18.44,7.629,27.829,10.967c12.563,5.011,25.923,4.885,39.116,6.111
	c7.401,1.974,13.718,0.587,20.621-1.497l-20.659,16.407c-7.203,1.571-14.084,1.929-21.398,0.227
	c-13.354-0.953-26.644-1.648-39.36-6.43c-9.191-3.428-18.198-8.456-27.823-10.037L174.509,371.502z"/>
<path id="path1295" d="M163.244,387.678c2.745,8.303,11.134,12.473,18.679,16.24c12.708,3.262,25.797,5.357,38.923,6.033
	c11.51,0.32,23.228-0.764,34.434-3.391c2.219-0.176,4.256-1.129,6.4-1.698l-20.978,16.122c-2.168,0.504-4.259,1.357-6.51,1.514
	c-11.339,2.111-22.9,3.416-34.464,2.652c-13.372-0.803-26.959-2.771-39.738-6.736c-8.319-4.499-17.087-9.4-20.619-18.573
	L163.244,387.678z"/>
<path id="path1297" d="M166.428,417.969c7.784,3.621,15.598,7.707,23.718,10.855c23.56,4.574,33.618,5.039,57.679,5.09
	c22.474-10.555-21.18,21.367-9.884,3.742l23.806-11.459c-5.249,13.99-20.493,21.295-35.064,23.26
	c-24.198-1.355-34.12-1.873-57.931-6.178c-8.038-2.916-15.984-7.391-23.999-9.562L166.428,417.969z"/>
<path id="path1299" d="M173.346,438.186c3.327,8.707,11.48,13.549,18.901,18.674c9.777,5.908,20.834,5.719,31.861,5.732
	c9.667,0.75,18.599-0.812,27.532-4.178c-35.251,21.209-16.888,14.047-13.851,0.102l23.436-12.119
	c-0.529,17.48-13.851,19.773-30.297,28.402c-9.249,2.621-18.424,4.041-28.131,3.271c-11.437-0.164-22.762-0.568-32.67-7.051
	c-8.129-5.689-16.502-11.289-20.653-20.672L173.346,438.186z"/>
<path id="path1301" d="M221.833,474.551c0.112,7.91-1.25,15.688-1.962,23.543l-23.533,11.801c0.635-7.736,2.212-15.402,1.624-23.18
	L221.833,474.551z"/>
<path id="path1315" d="M19.608,102.03c13.764,9.763,12.385,10.812,27.585,18.436c10.686,5.025,20.506,11.579,31.11,16.791
	c6.186,3.28,1.813,5.271,11.543,9.321l-14.099,14.164c-5.568-3.977-11.085-8.069-17.217-11.161
	c-10.582-5.265-20.577-11.455-31.125-16.761c-14.66-7.827-12.79-10.038-27.406-17.097L19.608,102.03z"/>
<path id="path1317" d="M164.194,0c12.15,12.29,35.234,66.62,37.614,73.711l-17.061,8.589c-2.296-6.874-23.837-61.532-37.315-72.355
	L164.194,0z"/>
<path id="path1319" d="M347.879,9.781c-5.035,20.346-14.512,53.758-22.287,73.293l-17.6-8.917
	c8.684-18.68,18.449-51.752,22.076-71.971L347.879,9.781z"/>
<path id="path1349" d="M425.504,161.109c22.865-13.489,53.42-17.966,79.504-25.331l2.838,16.354
	c-25.062,6.898-51.568,14.027-75.395,22.926L425.504,161.109z"/>
</svg>
