<?xml version="1.0" encoding="utf-8"?>
<!-- Generator: Adobe Illustrator 16.0.0, SVG Export Plug-In . SVG Version: 6.00 Build 0)  -->
<!DOCTYPE svg PUBLIC "-//W3C//DTD SVG 1.1//EN" "http://www.w3.org/Graphics/SVG/1.1/DTD/svg11.dtd">
<svg version="1.1" id="Layer_1" xmlns="http://www.w3.org/2000/svg" xmlns:xlink="http://www.w3.org/1999/xlink" x="0px" y="0px"
	 width="512px" height="512px" viewBox="0 0 512 512" enable-background="new 0 0 512 512" xml:space="preserve">
<g transform="translate(0.738281, 121.593)">
	<path fill="#00618A" d="M2.942,239.622h16.611v-64.517l25.716,56.244c3.035,6.809,7.188,9.216,15.333,9.216
		c8.147,0,12.14-2.407,15.175-9.216l25.716-56.244v64.517h16.613v-64.411c0-6.281-2.557-9.319-7.828-10.89
		c-12.618-3.876-21.084-0.526-24.917,7.854l-25.237,55.508l-24.438-55.508c-3.674-8.38-12.298-11.729-24.917-7.854
		c-5.272,1.57-7.827,4.608-7.827,10.89V239.622z"/>
</g>
<g transform="translate(100.444, 142.416)">
	<path fill="#00618A" d="M32.212,166.287h16.607v35.543c-0.156,1.931,0.63,6.464,9.73,6.605c4.643,0.068,35.831,0,36.122,0v-42.321
		h16.646c0.076,0-0.017,57.714-0.016,57.958c0.092,14.234-17.957,17.325-26.275,17.565H32.574v-10.991
		c0.091,0,52.413,0.011,52.545-0.002c10.69-1.11,9.428-6.336,9.427-8.097v-4.285H59.239c-16.426-0.148-26.887-7.2-27.017-15.31
		C32.209,202.198,32.577,166.643,32.212,166.287z"/>
</g>
<g transform="translate(171.496, 124.557)">
	<path fill="#E48E00" d="M53.066,236.658h47.758c5.59,0,11.021-1.151,15.334-3.142c7.188-3.246,10.703-7.644,10.703-13.405v-11.938
		c0-4.715-3.993-9.115-11.82-12.044c-4.153-1.573-9.266-2.412-14.217-2.412H80.699c-6.708,0-9.902-1.991-10.7-6.388
		c-0.161-0.524-0.161-0.944-0.161-1.467v-7.434c0-0.42,0-0.84,0.161-1.364c0.798-3.351,2.555-4.293,8.464-4.818
		c0.481,0,1.118-0.105,1.597-0.105h47.441v-10.89H80.858c-6.708,0-10.222,0.418-13.416,1.36
		c-9.903,3.037-14.215,7.856-14.215,16.236v9.53c0,7.329,8.466,13.615,22.681,15.08c1.599,0.104,3.195,0.21,4.792,0.21h17.25
		c0.64,0,1.277,0,1.757,0.104c5.271,0.42,7.508,1.361,9.106,3.247c0.956,0.942,1.276,1.887,1.276,2.934v9.531
		c0,1.149-0.8,2.618-2.396,3.875c-1.438,1.256-3.833,2.094-7.029,2.306c-0.638,0-1.115,0.103-1.755,0.103H53.066V236.658z"/>
</g>
<g transform="translate(308.656, 124.557)">
	<path fill="#E48E00" d="M93.328,217.703c0,11.205,8.466,17.491,25.557,18.747c1.598,0.104,3.194,0.208,4.792,0.208h43.287v-10.891
		h-43.606c-9.743,0-13.417-2.408-13.417-8.169v-56.347H93.328V217.703z"/>
</g>
<g transform="translate(236.74, 124.666)">
	<path fill="#E48E00" d="M72.218,218.164v-38.831c0-9.864,7.044-15.846,20.968-17.736c1.439-0.209,3.043-0.315,4.482-0.315h31.531
		c1.6,0,3.043,0.106,4.642,0.315c13.927,1.891,20.968,7.872,20.968,17.736v38.831c0,8.004-2.989,12.287-9.883,15.078l16.361,14.526
		h-19.289l-13.236-11.752l-13.329,0.832H97.668c-3.043,0-6.242-0.424-9.764-1.366C77.341,232.648,72.218,227.191,72.218,218.164z
		 M90.15,217.221c0,0.524,0.158,1.05,0.318,1.68c0.959,4.512,5.281,7.03,11.844,7.03h15.091l-13.861-12.309h19.288l12.089,10.736
		c2.228-1.169,3.695-2.955,4.207-5.249c0.159-0.523,0.159-1.049,0.159-1.574v-37.256c0-0.42,0-0.946-0.159-1.472
		c-0.96-4.198-5.283-6.609-11.682-6.609h-25.132c-7.363,0-12.162,3.147-12.162,8.081V217.221z"/>
</g>
<g transform="translate(241.59, -4.64258)">
	<path fill="#00618A" d="M248.645,272.383c-10.212-0.272-18.012,0.662-24.681,3.428c-1.896,0.785-4.917,0.806-5.227,3.143
		c1.043,1.073,1.204,2.677,2.032,3.996c1.591,2.535,4.279,5.931,6.677,7.712c2.621,1.943,5.322,4.027,8.133,5.711
		c4.996,2.996,10.576,4.71,15.388,7.711c2.835,1.77,5.653,3.998,8.42,5.996c1.366,0.985,2.287,2.522,4.064,3.142
		c0-0.095,0-0.19,0-0.285c-0.936-1.17-1.175-2.776-2.034-3.999c-1.255-1.236-2.515-2.474-3.773-3.714
		c-3.689-4.816-8.375-9.048-13.355-12.562c-3.972-2.806-12.86-6.592-14.518-11.137c-0.099-0.097-0.193-0.191-0.29-0.286
		c2.815-0.312,6.113-1.316,8.71-2c4.367-1.15,8.269-0.854,12.776-1.998c2.032-0.572,4.065-1.145,6.098-1.715c0-0.381,0-0.76,0-1.143
		c-2.28-2.3-3.903-5.342-6.39-7.425c-6.501-5.444-13.599-10.885-20.904-15.421c-4.053-2.516-9.062-4.151-13.356-6.283
		c-1.445-0.717-3.981-1.09-4.935-2.284c-2.258-2.829-3.486-6.415-5.227-9.71c-3.645-6.902-7.224-14.441-10.453-21.704
		c-2.203-4.952-3.643-9.836-6.387-14.278c-13.185-21.319-27.377-34.187-49.359-46.835c-4.679-2.688-10.311-3.752-16.262-5.14
		c-3.19-0.189-6.387-0.381-9.58-0.57c-1.952-0.803-3.979-3.148-5.808-4.285c-7.282-4.524-25.963-14.366-31.358-1.427
		c-3.404,8.167,5.091,16.138,8.13,20.275c2.135,2.904,4.866,6.159,6.388,9.424c1.004,2.146,1.176,4.298,2.034,6.568
		c2.11,5.594,3.946,11.679,6.677,16.849c1.38,2.615,2.9,5.372,4.646,7.711c1.069,1.436,2.903,2.067,3.191,4.283
		c-1.792,2.469-1.895,6.298-2.9,9.425c-4.54,14.072-2.828,31.564,3.774,41.979c2.023,3.199,6.794,10.057,13.354,7.426
		c5.737-2.298,4.457-9.423,6.098-15.706c0.37-1.426,0.144-2.474,0.87-3.428c0,0.096,0,0.19,0,0.286
		c1.743,3.426,3.485,6.853,5.228,10.279c3.868,6.127,10.733,12.53,16.549,16.851c3.017,2.24,5.394,6.115,9.291,7.425
		c0-0.096,0-0.189,0-0.286c-0.098,0-0.193,0-0.289,0c-0.757-1.158-1.938-1.639-2.904-2.569c-2.271-2.19-4.797-4.915-6.677-7.425
		c-5.291-7.066-9.966-14.798-14.227-22.847c-2.036-3.843-3.805-8.083-5.52-11.994c-0.659-1.509-0.651-3.788-2.031-4.57
		c-1.879,2.866-4.645,5.185-6.098,8.567c-2.322,5.41-2.621,12.008-3.482,18.848c-0.509,0.18-0.284,0.057-0.582,0.285
		c-4.044-0.959-5.464-5.053-6.968-8.565c-3.801-8.883-4.507-23.188-1.162-33.412c0.865-2.646,4.776-10.979,3.194-13.422
		c-0.755-2.438-3.251-3.849-4.645-5.712c-1.729-2.304-3.451-5.337-4.648-7.997c-3.11-6.926-4.563-14.701-7.837-21.702
		c-1.566-3.348-4.214-6.734-6.389-9.709c-2.407-3.296-5.104-5.724-6.969-9.711c-0.664-1.417-1.565-3.685-0.58-5.141
		c0.312-0.982,0.755-1.392,1.742-1.713c1.686-1.277,6.373,0.425,8.128,1.142c4.656,1.902,8.544,3.714,12.487,6.282
		c1.892,1.235,3.808,3.624,6.096,4.284c0.871,0,1.744,0,2.614,0c4.087,0.924,8.666,0.288,12.485,1.428
		c6.75,2.019,12.797,5.156,18.291,8.567c16.735,10.394,30.42,25.188,39.778,42.836c1.508,2.843,2.158,5.555,3.485,8.567
		c2.676,6.079,6.046,12.333,8.707,18.276c2.659,5.931,5.249,11.915,9.003,16.851c1.976,2.594,9.602,3.985,13.067,5.425
		c2.429,1.01,6.409,2.062,8.71,3.426c4.394,2.608,8.654,5.713,12.776,8.568C241.996,266.671,248.329,269.803,248.645,272.383z"/>
</g>
<g transform="translate(272.504, 24.8027)">
	<path fill="#00618A" d="M87.944,134.134c-2.13-0.038-3.638,0.229-5.227,0.57c0,0.096,0,0.191,0,0.286c0.097,0,0.193,0,0.289,0
		c1.016,2.052,2.81,3.373,4.064,5.142c0.969,1.999,1.938,3.997,2.905,5.995c0.095-0.094,0.193-0.189,0.29-0.285
		c1.798-1.245,2.622-3.239,2.612-6.282c-0.723-0.746-0.827-1.681-1.451-2.571C90.598,135.804,88.989,135.131,87.944,134.134z"/>
</g>
<g transform="translate(371.609, 165.56)">
	<path fill="#E48E00" d="M111.807,184.455c0,7.192,5.779,12.039,12.245,12.039c6.462,0,12.24-4.847,12.24-12.039
		s-5.778-12.041-12.24-12.041C117.586,172.414,111.807,177.262,111.807,184.455z M133.55,184.455c0,5.456-4.244,9.535-9.498,9.535
		c-5.322,0-9.502-4.079-9.502-9.535c0-5.46,4.18-9.537,9.502-9.537C129.306,174.918,133.55,178.995,133.55,184.455z
		 M127.349,191.326h2.741l-4.015-6.036c2.154-0.226,3.786-1.254,3.786-3.757c0-2.794-1.795-3.949-5.255-3.949h-5.452v13.742h2.351
		v-5.941h2.187L127.349,191.326z M121.505,183.46v-3.951h2.708c1.405,0,3.102,0.259,3.102,1.863c0,1.924-1.533,2.088-3.297,2.088
		H121.505z"/>
</g>
</svg>
