<?xml version="1.0" encoding="utf-8"?>
<!-- Generator: Adobe Illustrator 16.0.0, SVG Export Plug-In . SVG Version: 6.00 Build 0)  -->
<!DOCTYPE svg PUBLIC "-//W3C//DTD SVG 1.1//EN" "http://www.w3.org/Graphics/SVG/1.1/DTD/svg11.dtd">
<svg version="1.1" id="Layer_1" xmlns="http://www.w3.org/2000/svg" xmlns:xlink="http://www.w3.org/1999/xlink" x="0px" y="0px"
	 width="512px" height="512px" viewBox="0 0 512 512" enable-background="new 0 0 512 512" xml:space="preserve">
<radialGradient id="SVGID_1_" cx="133.8062" cy="183.6392" r="314.4005" gradientTransform="matrix(1 0 0 1 26.52 -9.3071)" gradientUnits="userSpaceOnUse">
	<stop  offset="0" style="stop-color:#FFFFFF"/>
	<stop  offset="0.5" style="stop-color:#4C6B97"/>
	<stop  offset="1" style="stop-color:#231F20"/>
</radialGradient>
<path fill="url(#SVGID_1_)" d="M255.999,381.947c132.231,0,239.429-56.389,239.429-125.947
	c0-69.559-107.197-125.948-239.429-125.948c-132.229,0-239.427,56.39-239.427,125.948
	C16.572,325.559,123.77,381.947,255.999,381.947z"/>
<ellipse fill="#6181B6" cx="255.999" cy="256" rx="230.075" ry="116.596"/>
<g>
	<path fill="#FFFFFF" d="M302.605,293.686c0,0,11.412-58.734,11.412-58.735c2.576-13.257,0.434-23.146-6.363-29.395
		c-6.584-6.046-17.764-8.986-34.174-8.986h-19.763l5.658-29.102c0.211-1.096-0.078-2.231-0.787-3.093
		c-0.711-0.862-1.77-1.361-2.887-1.361h-27.278c-1.791,0-3.331,1.27-3.673,3.027l-12.119,62.356
		c-1.103-7.016-3.817-13.049-8.164-18.024c-8.001-9.159-20.658-13.803-37.619-13.803h-52.872c-1.791,0-3.331,1.27-3.672,3.027
		L85.772,325.814c-0.213,1.098,0.075,2.232,0.786,3.094c0.71,0.859,1.769,1.361,2.887,1.361h27.495c1.791,0,3.33-1.27,3.672-3.027
		l5.934-30.529h20.466c10.742,0,19.762-1.164,26.808-3.459c7.204-2.342,13.832-6.312,19.676-11.785
		c4.72-4.336,8.623-9.193,11.625-14.432l-4.902,25.221c-0.213,1.096,0.075,2.232,0.786,3.094c0.71,0.859,1.77,1.361,2.887,1.361
		h27.278c1.791,0,3.331-1.27,3.672-3.027l13.464-69.282h18.718c7.975,0,10.311,1.588,10.945,2.271
		c0.576,0.623,1.777,2.819,0.432,9.738l-10.854,55.845c-0.211,1.096,0.076,2.232,0.789,3.094c0.709,0.859,1.768,1.361,2.885,1.361
		h27.713C300.723,296.713,302.262,295.443,302.605,293.686z M176.139,245.156c-1.713,8.804-4.942,15.084-9.598,18.668
		c-4.729,3.641-12.295,5.488-22.486,5.488h-12.186l8.813-45.342h15.754c11.575,0,16.238,2.475,18.11,4.548
		C177.142,231.397,177.692,237.15,176.139,245.156z"/>
	<path fill="#FFFFFF" d="M419.26,210.373c-8.002-9.159-20.66-13.803-37.619-13.803h-52.875c-1.789,0-3.328,1.27-3.67,3.027
		l-24.533,126.217c-0.213,1.098,0.076,2.232,0.787,3.094c0.711,0.859,1.768,1.361,2.887,1.361h27.494c1.791,0,3.33-1.27,3.672-3.027
		l5.934-30.529h20.467c10.742,0,19.762-1.164,26.809-3.459c7.203-2.342,13.832-6.312,19.676-11.785
		c4.873-4.479,8.885-9.506,11.924-14.941c3.033-5.43,5.215-11.492,6.482-18.015C429.82,232.432,427.318,219.6,419.26,210.373z
		 M390.744,245.156c-1.715,8.804-4.943,15.084-9.598,18.668c-4.73,3.641-12.297,5.488-22.488,5.488h-12.186l8.812-45.342h15.756
		c11.574,0,16.236,2.475,18.109,4.548C391.746,231.397,392.297,237.15,390.744,245.156z"/>
</g>
<g>
	<path fill="#000004" d="M156.436,220.229c10.446,0,17.407,1.928,20.888,5.785c3.478,3.856,4.307,10.477,2.487,19.857
		c-1.901,9.769-5.562,16.741-10.987,20.918s-13.683,6.266-24.769,6.266h-16.724l10.267-52.826H156.436z M89.444,326.529h27.495
		l6.522-33.557h23.551c10.392,0,18.94-1.09,25.651-3.277c6.711-2.18,12.811-5.84,18.301-10.979
		c4.607-4.236,8.335-8.906,11.19-14.016c2.852-5.104,4.878-10.739,6.076-16.902c2.909-14.962,0.714-26.616-6.58-34.964
		c-7.293-8.349-18.896-12.523-34.802-12.523h-52.872L89.444,326.529z"/>
	<path fill="#000004" d="M228.423,166.755h27.278l-6.521,33.557h24.301c15.291,0,25.838,2.669,31.643,8
		c5.805,5.335,7.543,13.978,5.223,25.926l-11.412,58.735h-27.713l10.854-55.846c1.234-6.353,0.779-10.687-1.365-12.997
		c-2.145-2.31-6.707-3.467-13.686-3.467h-21.802l-14.052,72.311h-27.278L228.423,166.755z"/>
	<path fill="#000004" d="M371.041,220.229c10.445,0,17.408,1.928,20.887,5.785s4.309,10.477,2.486,19.857
		c-1.9,9.769-5.561,16.741-10.986,20.918s-13.684,6.266-24.77,6.266h-16.723l10.266-52.826H371.041z M304.049,326.529h27.494
		l6.521-33.557h23.551c10.393,0,18.941-1.09,25.652-3.277c6.711-2.18,12.811-5.84,18.301-10.979
		c4.607-4.236,8.334-8.906,11.189-14.016c2.852-5.104,4.879-10.739,6.076-16.902c2.908-14.962,0.715-26.616-6.58-34.964
		c-7.293-8.349-18.896-12.523-34.803-12.523H328.58L304.049,326.529z"/>
</g>
</svg>
