<?xml version="1.0" encoding="utf-8"?>
<!-- Generator: Adobe Illustrator 16.0.0, SVG Export Plug-In . SVG Version: 6.00 Build 0)  -->
<!DOCTYPE svg PUBLIC "-//W3C//DTD SVG 1.1//EN" "http://www.w3.org/Graphics/SVG/1.1/DTD/svg11.dtd">
<svg version="1.1" id="Layer_1" xmlns="http://www.w3.org/2000/svg" xmlns:xlink="http://www.w3.org/1999/xlink" x="0px" y="0px"
	 width="512px" height="512px" viewBox="0 0 512 512" enable-background="new 0 0 512 512" xml:space="preserve">
<g>
	<g id="g2868" transform="matrix(1.25,0,0,-1.25,217.83716,1397.5022)">
		<g>
			<defs>
				<rect id="SVGID_1_" x="-172.932" y="577.272" width="415.912" height="550.803"/>
			</defs>
			<clipPath id="SVGID_2_">
				<use xlink:href="#SVGID_1_"  overflow="visible"/>
			</clipPath>
			<g id="g2870" clip-path="url(#SVGID_2_)">
				<path id="path2876" fill="#FFFFFF" d="M-77.191,1051.128c-4.9-161.202-20.572-210.008,107.263-270.644
					c127.837,60.636,112.169,109.441,107.258,270.644H-77.191z"/>
				<g id="g2878" transform="matrix(1.013702,0,0,-1,-4.251984,420.9449)">
					<path id="path2880" fill="none" stroke="#176FC1" d="M-71.953-630.183C-76.787-468.98-92.247-420.175,33.86-359.539
						c126.109-60.636,110.653-109.441,105.808-270.644H-71.953L-71.953-630.183z"/>
				</g>
				<path id="path2882" fill="#1B4F9C" d="M30.936,890.203c-10.226-0.125-21.874-1.861-21.498,3.614
					c0.486,7.223-2.192,1.995-2.104,0.248c0.246-4.857,2.641-7.473,23.602-5.852"/>
				<g id="g2884" transform="matrix(1.013702,0,0,-1,-4.251984,420.9449)">
					<path id="path2886" fill="none" stroke="#1B4F9C" stroke-width="0.177" d="M34.708-469.258
						c-10.084,0.125-21.575,1.861-21.204-3.614c0.479-7.223-2.162-1.995-2.075-0.25c0.242,4.859,2.605,7.475,23.279,5.855"/>
				</g>
				<path id="path2888" fill="#EE293D" d="M34.094,865.85l1.661-1.865l1.238-1.48l1.237-2.22l1.655-2.232l3.303-1.847l2.903-1.489
					l3.723-1.473l2.879-0.743l2.897-0.74l2.47-0.737l3.302-2.23l2.067-2.219l1.243-2.22l0.83-2.23l1.243-1.858l1.243-1.1l3.316-0.74
					h2.474l1.651,1.477l0.815,2.591l-0.815,2.966l-2.495,2.972l-2.879,2.954l-4.552,3.33l-4.547,3.336l-4.952,3.715l-2.466,2.96
					l-1.673,2.977l-1.234,2.956v2.594l0.413,2.595l0.821,2.593l1.245,2.22l2.48,1.494l2.47,0.734h3.302l3.001-0.463l3.212-1.019
					l3.729-1.852l2.882-1.846l2.88-3.72l2.902-2.591l2.066-2.957l2.058-2.59l2.917-2.228l2.466-1.492l3.302-1.481h2.066l2.064,0.738
					v-1.843l-1.237-1.493l-2.078-0.73h-2.459l-2.08,1.855l2.496-2.972l0.406-2.595v-2.223v-1.85l2.486-1.483l2.466,0.738
					l1.673,1.479l1.236,2.975v2.222l1.237-1.491l1.216-2.216l-0.402-1.486l-1.237-1.482l1.237,1.482l2.073,2.226v2.968v2.584
					l-1.237,2.598l2.466-2.954l0.823-2.598V852.5l-1.236-2.594l-0.816-1.852l-2.486-1.48l-2.468-1.477l2.88,0.364l2.486,1.113
					l-2.486-2.22l-2.474-0.372l-2.486-1.111l-3.315,0.366l-3.702,0.745l-2.472,1.848l-2.903,1.861l-1.23,1.84l-0.835,2.601v2.584
					v1.864l-2.073,0.372l-2.057,1.486l-0.821,1.464l0.407,2.976l1.234-2.227l1.666-1.473h2.066l0.821,1.85l-0.407,0.93l-0.835,1.289
					l-1.868,1.857l-1.841,1.674l-1.673,2.028l-2.049,2.412l-2.692,2.594l-3.113,2.783l-4.122,1.657l-3.085,0.562l-2.396-0.188
					l-1.537-0.916l-1.027-1.859l-0.627-2.222l0.627-2.23l1.642-2.222l1.653-1.845l1.243-1.673l2.894-2.779l2.27-2.229l2.894-2.598
					l2.271-1.847l1.657-1.674l2.263-2.216l1.235-2.216l1.864-2.407l0.616-2.23l0.633-1.854l0.196-2.229l-0.407-1.845l-0.83-2.233
					l-1.438-1.844l-2.682-0.74l-3.626-0.551l-3.816,0.732l0.625-3.519l0.603-2.405v-2.048l-0.188-2.211l1.023-0.752l1.457,0.931
					l1.228,0.738v-3.152l-0.414-1.658l-1.245-1.111l-1.23-1.49l-3.723-0.555l2.488,0.185l2.684,0.37l-1.448-1.849l-1.65-1.663
					l-2.284-0.556l-2.466-0.383l-2.081-0.17c1.448-0.379,3.52-0.755,3.52-0.755l1.862-0.18l1.021,0.372l-3.291-1.666l-3.939-0.37
					h-1.855l-2.466-0.373l1.847-0.555l4.35-0.373l2.064,0.18l-1.248-1.667l-2.481-0.736l-2.066-0.555c0,0-1.033-0.184-1.637,0
					c-0.633,0.185-3.527,0.555-3.527,0.555l1.862-1.301l3.714-0.551l-2.466-1.484l-2.078-0.19h-2.277L50,804.321l-1.649-0.549
					l-2.059-0.563l-2.058-0.366l-1.876-1.12l-1.855-2.028l-1.652-1.491l-1.648-1.104l-1.651-0.924l-1.866-0.187h-1.858l0.405,1.111
					l-1.127,1.386l1.031,0.655l1.344,1.198l1.238,1.031l1.863,0.176l-3.721,0.563h-3.101l-2.485-0.385l-1.647-0.178l0.415,0.924
					v0.935l-1.456,0.737l-1.216,0.18l2.055,1.305l2.886,0.745l2.073-0.375l1.444-0.747l1.437-0.366l1.661,0.187l-0.832,1.853
					l-1.861,1.116l-2.266,1.113h-2.484l0.215,1.666l-0.215,1.483h2.076h1.433l1.869-0.562l1.859-0.736l2.688-0.74l-1.241,2.403
					l-1.24,1.488l-1.24,1.112l0.207,1.653l-0.628,1.302l-1.032,0.747l2.486,0.174l2.273-0.359l1.653-1.309l1.443-2.039l1.252-2.028
					l1.44-1.486l2.471,0.745l3.319,2.222l2.269,2.587l1.024,2.968l-0.203,4.641l-1.847,1.105l-2.903,2.041l-2.277,1.858
					l-0.196,0.748l-1.249,0.18h-3.725l-3.506,0.171l-1.862-1.282l-1.026-2.977l-0.208-2.031l0.62-1.301l1.869,0.37l1.643,0.752
					l-0.411-1.121l-1.655-1.671l-1.033-0.37H30.79l-2.892-0.551l-2.063-0.56l-1.034-1.473l-1.024-0.748l1.436-1.305l1.655-1.095
					l-2.473-0.559h-2.691l-3.713,1.486l1.023-1.116l2.478-1.864l2.902-0.73l-2.069-0.377l-2.073-0.178h-2.261l-1.869,0.555
					l-2.887,1.295l1.436-1.295l2.895-1.666l2.28-1.109l-2.887-0.188l-3.723,0.74l-2.473,0.734l-2.491-0.362l-3.098-0.371
					l-1.855-0.934l-1.869,0.748l-2.062-0.19l-1.233-0.177l0.818,1.851l2.478,1.294l3.308,1.48l-3.719-0.555l-2.27-0.565
					l-1.855-0.167h-2.483l-1.652,0.361l-1.869,0.556l-0.2,1.849l-0.815,1.108l-1.255,0.746l-1.248,0.375l0.609,0.213l1.471,0.524
					h2.477l2.688-0.551h2.276l1.239,0.551c0,0-1.661,0.919-2.276,0.919c-0.614,0-2.48,1.116-2.48,1.116l-2.07,0.931l-1.239,0.736
					l0.821,1.305v1.664l-0.2,1.295h2.48l2.687-1.111l2.065-1.473l1.854-0.931l1.455-0.19l-1.039,1.301l-1.027,1.859l-0.828,1.655
					v1.113l-0.84,1.664l1.043,1.868l0.41,1.109l2.895-1.109l1.864-2.039l0.827-2.041l0.614-1.854l1.235-1.663l1.863-1.673
					l2.075-0.748l2.889-0.173l2.48,0.366l2.677,1.113l1.454,1.115l0.204,2.035l-0.204,1.852l0.407,1.841l-0.817,2.977l0.204,2.223
					l0.825,2.222l1.24,1.659l-0.77-0.155l-4.183,0.716l-4.557,3.336l-1.579-1.688l0.652,2.595l-0.695,3.363l-0.853-2.044
					l-0.826-3.148l-1.655-0.559l-1.852-1.477l-1.871-0.94l1.243,2.049l0.415,2.583l0.417,2.046l-1.247-3.338l-1.235-1.85
					l-1.241-1.49l-1.446-0.732l0.832,2.04l0.614,2.78l-1.446-1.859l-1.449-2.041l-1.85-1.67l-1.661-1.109l-1.441-0.556l1.03,1.666
					l1.043,1.859l1.223,2.041l-2.677-2.417l-2.27-2.035l-2.08-1.112l-2.062-0.733l0.623,1.845l0.625,1.865l0.616,1.478l-2.273-1.67
					l-2.062-0.737l-1.658-0.188l-1.651-1.109l-0.822-1.671l-0.621-1.85l-0.415-1.859l-0.414-1.653l-0.411-1.59l-0.418-0.836
					l-2.055,1.12l-1.036-0.37l-0.618,2.41v1.484l0.82,2.213h-1.441l-1.451-0.549l-1.236-0.739l-1.448-0.924l-1.039-0.196
					l-0.201,0.925l-0.621,0.934h-0.196l-1.666,0.74l1.666,1.482l2.674,0.736l2.367,0.933l1.562,0.927l2.07,1.845l-2.895-0.173
					l-2.898,0.173l-2.684,0.195l-2.48,0.182l-0.828,1.116h-0.204l-2.273,0.177l2.08,1.85l2.674,0.933h2.27l1.864-0.559l2.277-0.373
					l1.647,0.199l-1.243,1.201l-1.539,1.658l-1.353,1.581v1.301l-0.821,1.662l0.614,2.598l-0.4,1.295l2.261-0.75l1.658-1.284
					l0.609-1.669l1.046-2.052l1.855-2.025l1.858-0.56l2.691,0.182l4.538,2.602l2.08,1.477l2.884,1.125l3.713,1.277l1.328,0.285
					l1.567,0.285l-4.338,0.552l1.866,1.113l1.029,1.292l-1.655-0.548l-1.444-0.941l-2.065-0.368h-2.49l-3.917,1.12l2.898,0.736
					l2.269,1.301l0.412,1.482l-2.055-0.926l-1.869-0.748l-1.866-0.373l-1.636-0.18l-3.938,0.745l-1.858,0.556l2.684,0.741
					l2.28,0.545l1.24,1.491l-2.073-0.748l-2.274-0.549l-2.073-0.194l-2.061,0.379l-2.271,0.927l2.07,0.185l1.44,0.366l1.45,0.931
					v0.737l-2.269-0.552l-2.691-0.186l-1.449,0.186l-1.648,0.191l-2.07,0.919l0.621,0.928l-0.204,1.657h2.06h1.439h2.287
					l1.859,0.384l-0.415,0.735l-2.268,0.745l-2.069,0.549l-1.655,0.746l-1.655,0.37l0.621,1.112l0.201,1.847l-1.018,1.303
					l0.186,0.098l1.248,0.642l2.276,0.37l1.445-0.744l1.039-1.294l0.816-1.112l2.08-0.919l1.641-0.192v1.289v1.492l-0.204,1.291
					l-0.83,1.666l-1.226,0.748l1.854,1.299l-0.213,2.032l1.454-0.191l1.859-1.101l1.451-1.49l0.832-0.549l0.408,1.662l0.192,1.113
					l1.036,0.925l1.041,0.928l1.851,0.741l0.217,1.48v0.93l1.859-1.3l1.24-1.477v-1.861l-1.041-1.845l-2.058-1.856l-1.243-0.916
					l-0.211-1.672l0.411-2.048l1.669-2.027l3.295-2.041l2.687-1.48l3.919-1.487l3.718-1.481l4.141-0.919l3.046-0.521l0.432-0.048
					l-2.24,0.93l-2.891,1.486l-2.271,1.484l-1.243,1.389l-0.822,1.767l2.267-0.57l2.895-0.743h3.305h1.654l-1.44,0.933l-2.279,0.927
					l-1.451,1.478l-1.027,1.667l-1.247,2.039l4.233-0.734l1.77-0.556l2.059-0.183l2.069,1.108l2.066,2.407l0.073,0.644l0.138,1.028
					l-0.211,1.097l-0.316,0.845l-0.509,0.651l-1.656,0.169l-0.417,1.122l0.204,0.938l1.455,0.548h1.849l2.898-0.372h1.847h2.498
					l2.879,0.372l2.077,0.731l1.439,1.123l0.412,2.22l-0.819,2.044l-1.447,1.103l-2.481,0.552l-2.895-0.357l-2.483-0.367
					l-2.27-0.374l-2.48-0.19h-1.854l-1.454,0.366l-0.827,1.116l-0.2,1.107v0.75l-0.207,0.556l-1.025,0.734v1.114l1.232,0.925h1.852
					l2.482,0.378l1.663,0.558l1.854,0.919l1.445,1.672c0,0,0.203,0.552,1.24,0.919c1.031,0.373,4.952,0.373,5.78,0.558
					c0.832,0.191-0.199,0.191-0.199,0.191h2.488l1.229-0.191l3.724,3.895l0.202-5.007l1.238-0.558l3.308-0.556l-2.071-1.109
					l2.273-0.554l1.855,0.377l-0.816-1.671l-2.08-1.122l1.457-0.738l2.902-0.186h1.43l-1.229-1.293l-1.86-0.931l-0.423-0.552
					l2.283-0.559l1.652,0.18h1.439l-0.399-1.098l-1.04-0.557l-2.073-0.191l1.031-0.542l2.277-0.75l1.441,0.555l1.462,0.738
					l1.229,1.49l1.027,1.112l0.623-2.044v-2.226l-0.722-1.379l-1.229-1.49l-2.39-0.659h-2.684l-2.676,0.943l-1.252,0.549l4.351-2.41
					l1.852-0.362l3.423,0.269l-0.948-1.384l-1.434-0.746l-2.691-0.367l-1.855-0.188l-0.835,0.555l-0.457,0.226l-0.335,0.665
					l-1.09,0.477l0.855-1.293l2.264-1.744l3.731-1.112l-1.245-1.849l-5.374,0.742l1.651-1.846l1.65-1.116l2.073-0.744l-2.486-1.117
					l-2.264-0.186l-2.691,0.934l-2.477,2.228l0.416-1.492l1.239-2.228l2.059-1.48l3.316-1.469l2.067-0.38l-4.034-0.555l-2.586,0.555
					l-2.477,0.737l-2.48,1.494l0.627-1.675l1.44-1.666l2.891-1.847l2.896-0.751l2.059-0.373l-4.14-1.108h-2.47l-4.135,0.379"/>
				<g id="g2890" transform="matrix(1.013702,0,0,-1,-4.251984,420.9449)">
					<path id="path2892" fill="none" stroke="#231F20" stroke-width="0.087" stroke-miterlimit="10" d="M37.827-444.905l1.638,1.865
						l1.221,1.48l1.22,2.22l1.632,2.232l3.258,1.847l2.855,1.489l3.681,1.473l2.84,0.743l2.858,0.74l2.437,0.737l3.257,2.23
						l2.039,2.219l1.226,2.22l0.818,2.23l1.226,1.858l1.226,1.1l3.271,0.743h2.441l1.628-1.477l0.804-2.595l-0.804-2.966
						l-2.462-2.972l-2.84-2.954l-4.491-3.33l-4.485-3.336l-4.885-3.715l-2.432-2.958l-1.658-2.98l-1.211-2.956v-2.591l0.408-2.598
						l0.803-2.587l1.235-2.225l2.447-1.494l2.437-0.73h3.257l2.96,0.462l3.168,1.016l3.679,1.852l2.843,1.846l2.841,3.72
						l2.862,2.591l2.038,2.957l2.03,2.591l2.869,2.233l2.442,1.486l3.257,1.486h2.038l2.036-0.74v1.844l-1.22,1.489l-2.05,0.73
						h-2.426l-2.052-1.855l2.462,2.972l0.401,2.595v2.223v1.855l2.452,1.477l2.432-0.738l1.651-1.479l1.219-2.972v-2.225l1.22,1.491
						l1.2,2.216l-0.397,1.489l-1.22,1.479l1.22-1.479l2.045-2.229v-2.968v-2.584l-1.22-2.598l2.432,2.959l0.812,2.593v2.598
						l-1.219,2.595l-0.805,1.851l-2.452,1.48l-2.441,1.477l2.848-0.364l2.452-1.112l-2.452,2.22l-2.441,0.375l-2.452,1.109
						l-3.27-0.368l-3.652-0.741l-2.438-1.852l-2.864-1.856l-1.22-1.845l-0.818-2.601v-2.584v-1.864l-2.045-0.372l-2.029-1.486
						l-0.81-1.464l0.402-2.976l1.217,2.227l1.644,1.473h2.038l0.81-1.85l-0.408-0.93l-0.818-1.289l-1.843-1.857l-1.816-1.674
						l-1.651-2.026l-2.022-2.411l-2.656-2.597l-3.071-2.78l-4.066-1.656l-3.043-0.566l-2.364,0.188l-1.526,0.916l-1.003,1.859
						l-0.618,2.222l0.618,2.23l1.62,2.225l1.631,1.841l1.226,1.677l2.855,2.777l2.239,2.227l2.855,2.598l2.24,1.847l1.635,1.68
						l2.233,2.215l1.218,2.216l1.839,2.403l0.607,2.23l0.624,1.855l0.193,2.229l-0.402,1.85l-0.819,2.229l-1.419,1.841l-2.646,0.745
						l-3.577,0.549l-3.764-0.736l0.617,3.519l0.595,2.405v2.048l-0.185,2.211l1.01,0.752l1.437-0.931l1.212-0.737v3.152
						l-0.408,1.662l-1.228,1.111l-1.213,1.487l-3.673,0.553l2.454-0.184l2.648-0.37l-1.429,1.854l-1.628,1.656l-2.253,0.556
						l-2.432,0.386l-2.053,0.167c1.429,0.379,3.473,0.755,3.473,0.755l1.837,0.18l1.007-0.372l-3.246,1.666l-3.886,0.37h-1.83
						l-2.433,0.373l1.822,0.555l4.291,0.373l2.036-0.18l-1.24,1.667l-2.438,0.741l-2.038,0.55c0,0-1.019,0.186-1.615,0
						c-0.624-0.184-3.479-0.55-3.479-0.55l1.837,1.298l3.664,0.549l-2.432,1.484l-2.05,0.19h-2.247l-1.837-0.37l-1.627,0.549
						l-2.032,0.563l-2.03,0.366l-1.85,1.12l-1.83,2.028l-1.629,1.491l-1.625,1.104l-1.628,0.924l-1.841,0.187h-1.833l0.399-1.111
						l-1.112-1.38l1.017-0.66l1.326-1.198l1.218-1.03l1.841-0.176l-3.671-0.563h-3.059l-2.452,0.385l-1.625,0.178l0.409-0.924
						v-0.935l-1.437-0.737l-1.2-0.18l2.028-1.305l2.847-0.745l2.045,0.375l1.424,0.747l1.417,0.366l1.638-0.187l-0.821-1.853
						l-1.836-1.113l-2.235-1.116h-2.451l0.212-1.666l-0.212-1.483h2.048h1.413l1.843,0.562l1.83,0.736l2.655,0.74l-1.224-2.403
						l-1.223-1.488l-1.223-1.112l0.204-1.649l-0.62-1.306l-1.018-0.747l2.448-0.174l2.247,0.359l1.631,1.309l1.423,2.039
						l1.235,2.028l1.42,1.486l2.438-0.745l3.274-2.222l2.238-2.587l1.01-2.968l-0.2-4.641l-1.822-1.105l-2.864-2.041l-2.247-1.859
						l-0.193-0.746l-1.232-0.18h-3.675l-3.459-0.171l-1.837,1.282l-1.012,2.977l-0.205,2.031l0.612,1.301l1.843-0.37l1.621-0.752
						l-0.405,1.121l-1.633,1.671l-1.019,0.37h-3.06l-2.853,0.551l-2.035,0.56l-1.02,1.473l-1.01,0.747l1.417,1.302l1.632,1.098
						l-2.439,0.555h-2.654l-3.662-1.482l1.008,1.109l2.446,1.871l2.862,0.73l-2.045,0.372l-2.041,0.183h-2.23l-1.843-0.555
						l-2.848-1.295l1.417,1.295l2.855,1.666l2.249,1.109l-2.848,0.188l-3.672-0.743l-2.44-0.73l-2.457,0.361l-3.057,0.37
						l-1.83,0.937l-1.843-0.748l-2.035,0.19l-1.217,0.177l0.807-1.851l2.445-1.294l3.263-1.48l-3.669,0.552l-2.239,0.564l-1.83,0.17
						h-2.45l-1.63-0.364l-1.843-0.553l-0.197-1.848l-0.808-1.108l-1.233-0.748l-1.231-0.373l0.601-0.213l1.452-0.524h2.443
						l2.651,0.549h2.245l1.223-0.549c0,0-1.639-0.92-2.245-0.92c-0.606,0-2.447-1.118-2.447-1.118l-2.042-0.931l-1.222-0.738
						l0.81-1.302v-1.663l-0.197-1.295h2.447l2.651,1.111l2.037,1.473l1.829,0.931l1.435,0.19l-1.025-1.301l-1.013-1.859
						l-0.817-1.655v-1.12l-0.828-1.657l1.029-1.868l0.405-1.109l2.856,1.109l1.839,2.039l0.816,2.041l0.606,1.854l1.216,1.663
						l1.841,1.673l2.047,0.745l2.85,0.177l2.446-0.37l2.64-1.109l1.434-1.115l0.201-2.035l-0.201-1.852l0.402-1.841l-0.806-2.977
						l0.201-2.223l0.814-2.222l1.223-1.659l-0.76,0.155l-4.126-0.716l-4.495-3.336l-1.558,1.688l0.644-2.594l-0.686-3.364
						l-0.845,2.044l-0.811,3.148l-1.632,0.559l-1.827,1.477l-1.846,0.94l1.226-2.049l0.41-2.583l0.412-2.046l-1.23,3.338
						l-1.218,1.85l-1.225,1.49l-1.432,0.732l0.826-2.04l0.606-2.78l-1.432,1.859l-1.424,2.041l-1.825,1.67l-1.639,1.109
						l-1.422,0.556l1.016-1.666l1.029-1.859l1.207-2.041l-2.64,2.417l-2.239,2.035l-2.052,1.113l-2.035,0.736l0.614-1.848
						l0.616-1.865l0.607-1.478l-2.243,1.67l-2.035,0.737l-1.635,0.188l-1.628,1.109l-0.814,1.671l-0.61,1.85l-0.41,1.859
						l-0.409,1.653l-0.405,1.59l-0.412,0.836l-2.03-1.12l-1.02,0.37l-0.613-2.41v-1.484l0.812-2.213h-1.422l-1.432,0.549
						l-1.223,0.739l-1.425,0.924l-1.025,0.196l-0.198-0.925l-0.615-0.934h-0.191l-1.643-0.74l1.643-1.482l2.638-0.736l2.335-0.933
						l1.541-0.927l2.042-1.845l-2.855,0.173l-2.859-0.173l-2.65-0.195l-2.444-0.182l-0.821-1.116h-0.197l-2.243-0.174l2.052-1.852
						l2.638-0.933h2.239l1.839,0.559l2.246,0.373l1.625-0.199l-1.226-1.201l-1.521-1.658l-1.331-1.581v-1.301l-0.81-1.663
						l0.606-2.598l-0.398-1.295l2.234,0.75l1.633,1.284l0.603,1.669l1.029,2.052l1.829,2.025l1.837,0.56l2.651-0.182l4.481-2.602
						l2.047-1.477l2.849-1.125l3.663-1.277l1.31-0.285l1.546-0.285l-4.28-0.552l1.84-1.113l1.015-1.292l-1.632,0.548l-1.425,0.941
						l-2.037,0.368h-2.457l-3.867-1.12l2.862-0.736l2.238-1.301l0.406-1.482l-2.032,0.927l-1.843,0.747l-1.837,0.373l-1.614,0.18
						l-3.885-0.745l-1.837-0.555l2.651-0.743l2.25-0.545l1.218-1.49l-2.04,0.747l-2.243,0.549l-2.045,0.194l-2.033-0.379
						l-2.24-0.927l2.042-0.184l1.42-0.371l1.431-0.928v-0.737l-2.241,0.552l-2.652,0.186l-1.43-0.186l-1.626-0.191l-2.044-0.919
						l0.615-0.928l-0.201-1.657h2.032h1.42h2.253l1.836-0.384l-0.41-0.735l-2.238-0.745l-2.045-0.549l-1.631-0.746l-1.632-0.37
						l0.615-1.112l0.198-1.847l-1.005-1.303l0.183-0.098l1.231-0.642l2.245-0.37l1.425,0.744l1.025,1.292l0.805,1.114l2.052,0.919
						l1.618,0.192v-1.289v-1.492l-0.202-1.291l-0.818-1.671l-1.212-0.743l1.832-1.299l-0.21-2.032l1.434,0.191l1.833,1.101
						l1.432,1.49l0.821,0.549l0.398-1.666l0.195-1.109l1.022-0.925l1.027-0.928l1.822-0.741l0.218-1.483v-0.927l1.833,1.3
						l1.223,1.477v1.861l-1.027,1.841l-2.03,1.86l-1.23,0.916l-0.204,1.672l0.405,2.048l1.642,2.027l3.255,2.041l2.651,1.48
						l3.866,1.487l3.663,1.481l4.089,0.919l3.005,0.521l0.426,0.048l-2.21-0.93l-2.852-1.486l-2.24-1.484l-1.226-1.389l-0.811-1.767
						l2.236,0.57l2.856,0.743h3.26h1.631l-1.423-0.933l-2.246-0.927l-1.431-1.478l-1.013-1.663l-1.23-2.043l4.176,0.734l1.744,0.556
						l2.033,0.183l2.041-1.108l2.038-2.407l0.072-0.644l0.136-1.028l-0.208-1.097l-0.312-0.845l-0.502-0.651l-1.633-0.17
						l-0.412-1.122l0.202-0.938l1.436-0.548h1.824l2.859,0.372h1.819h2.468l2.84-0.372l2.049-0.731l1.42-1.123l0.407-2.22
						l-0.812-2.044l-1.423-1.103l-2.448-0.552l-2.855,0.357l-2.449,0.367l-2.239,0.374l-2.447,0.19h-1.829l-1.434-0.366
						l-0.815-1.116l-0.197-1.107v-0.75l-0.205-0.554l-1.011-0.737v-1.111l1.215-0.928h1.827l2.448-0.378l1.636-0.555l1.833-0.922
						l1.425-1.672c0,0,0.2-0.552,1.223-0.919c1.017-0.373,4.885-0.373,5.702-0.558c0.821-0.191-0.197-0.191-0.197-0.191h2.449
						l1.217,0.191l3.674-3.895l0.2,5.01l1.221,0.555l3.263,0.556l-2.043,1.109l2.243,0.554l1.83-0.377l-0.805,1.671l-2.052,1.122
						l1.437,0.738l2.862,0.186h1.411l-1.212,1.293l-1.835,0.931l-0.417,0.552l2.252,0.559l1.622-0.18h1.427l-0.394,1.098
						l-1.033,0.557l-2.038,0.191l1.017,0.542l2.247,0.75l1.422-0.555l1.442-0.738l1.212-1.49l1.013-1.112l0.615,2.044v2.226
						l-0.712,1.382l-1.212,1.487l-2.358,0.659h-2.648l-2.64-0.939l-1.235-0.553l4.292,2.414l1.827,0.358l3.376-0.269l-0.936,1.388
						l-1.42,0.742l-2.65,0.367l-1.83,0.191l-0.824-0.559l-0.451-0.226l-0.331-0.658l-1.075-0.484l0.844,1.293l2.233,1.744
						l3.681,1.112l-1.228,1.849l-5.302-0.742l1.628,1.846l1.628,1.119l2.045,0.741l-2.452,1.121l-2.233,0.182l-2.654-0.934
						l-2.444-2.228l0.411,1.492l1.222,2.228l2.031,1.48l3.271,1.469l2.039,0.38l-3.979,0.557l-2.551-0.557l-2.444-0.737
						l-2.447-1.494l0.618,1.675l1.42,1.666l2.852,1.847l2.857,0.751l2.031,0.373l-4.084,1.108h-2.436L37.827-444.905"/>
				</g>
				<path id="path2894" fill="#231F20" d="M15.501,892.339l0.623-1.851l0.835,1.851"/>
				<g id="g2896" transform="matrix(1.013702,0,0,-1,-4.251984,420.9449)">
					<path id="path2898" fill="none" stroke="#231F20" stroke-width="0.043" stroke-miterlimit="10" d="M19.486-471.394l0.61,1.851
						l0.828-1.851"/>
				</g>
				<path id="path2900" fill="#231F20" d="M18.704,892.529l0.732-1.855l0.614,2.031"/>
				<g id="g2902" transform="matrix(1.013702,0,0,-1,-4.251984,420.9449)">
					<path id="path2904" fill="none" stroke="#231F20" stroke-width="0.043" stroke-miterlimit="10" d="M22.645-471.584l0.722,1.855
						l0.606-2.031"/>
				</g>
				<path id="path2906" fill="#231F20" d="M22.212,893.075l0.516-2.032l1.147,2.227"/>
				<g id="g2908" transform="matrix(1.013702,0,0,-1,-4.251984,420.9449)">
					<path id="path2910" fill="none" stroke="#231F20" stroke-width="0.043" stroke-miterlimit="10" d="M26.107-472.13l0.509,2.032
						l1.131-2.227"/>
				</g>
				<path id="path2912" fill="#231F20" d="M25.523,893.448l0.519-2.038l0.621,1.861"/>
				<g id="g2914" transform="matrix(1.013702,0,0,-1,-4.251984,420.9449)">
					<path id="path2916" fill="none" stroke="#231F20" stroke-width="0.043" stroke-miterlimit="10" d="M29.373-472.503l0.512,2.038
						l0.613-1.861"/>
				</g>
				<path id="path2918" fill="#231F20" d="M15.806,885.855l0.317,1.298l1.028-1.298"/>
				<g id="g2920" transform="matrix(1.013702,0,0,-1,-4.251984,420.9449)">
					<path id="path2922" fill="none" stroke="#231F20" stroke-width="0.043" stroke-miterlimit="10" d="M19.787-464.91l0.308-1.298
						l1.019,1.298"/>
				</g>
				<path id="path2924" fill="#231F20" d="M19.014,885.483l0.626,1.669l1.238-1.669"/>
				<g id="g2926" transform="matrix(1.013702,0,0,-1,-4.251984,420.9449)">
					<path id="path2928" fill="none" stroke="#231F20" stroke-width="0.043" stroke-miterlimit="10" d="M22.951-464.538l0.617-1.669
						l1.222,1.669"/>
				</g>
				<path id="path2930" fill="#231F20" d="M23.369,885.483l0.305,1.848l1.538-1.667"/>
				<g id="g2932" transform="matrix(1.013702,0,0,-1,-4.251984,420.9449)">
					<path id="path2934" fill="none" stroke="#231F20" stroke-width="0.043" stroke-miterlimit="10" d="M27.248-464.538l0.301-1.848
						l1.517,1.667"/>
				</g>
				<path id="path2936" fill="#231F20" d="M26.456,887.332l0.099-1.477l1.247,0.367L26.456,887.332z"/>
				<g id="g2938" transform="matrix(1.013702,0,0,-1,-4.251984,420.9449)">
					<path id="path2940" fill="none" stroke="#231F20" stroke-width="0.043" stroke-miterlimit="10" d="M30.293-466.387l0.098,1.477
						l1.23-0.367L30.293-466.387z"/>
				</g>
				<path id="path2942" fill="#EE293D" d="M41.037,884.58l-1.153,0.727l0.416-1.312l1.04-1.477l0.822-1.469l-1.862,0.534
					l-1.856,1.495l-0.827,1.288l-0.827,1.669l0.723-2.859l-0.106-1.303l-0.319-1.024l-0.716-1.193l-2.172-1.587l0.207,1.487
					l0.211,1.945l-0.102,1.577l-0.623,2.587l0.201-1.85l-0.201-2.232l-0.628-1.655l-0.611-1.302l-1.97-2.034l0.308,3.145v1.673
					l-0.201,1.478l-0.823-3.899l-1.234-2.584l-0.835-1.104l-2.161-1.581l0.098,1.206l0.409,1.846l0.42,2.041l0.205,1.297
					l-1.443-2.959l-1.24-2.602l-1.456-1.295l-1.65-1.478l0.212,1.849l0.603,2.595l0.213,1.851l-1.444-1.666l-2.271-2.413
					l-1.434-1.097l0.608,2.031l0.421,1.479l0.822,2.035l0.627,1.67l-0.84-0.552l-1.227-0.742H16.54l0.073,0.644"/>
				<g id="g2944" transform="matrix(1.013702,0,0,-1,-4.251984,420.9449)">
					<path id="path2946" fill="none" stroke="#231F20" stroke-width="0.087" stroke-miterlimit="10" d="M44.676-463.635
						l-1.138-0.727l0.411,1.312l1.017,1.477l0.819,1.469l-1.837-0.534l-1.831-1.495l-0.815-1.288l-0.816-1.669l0.713,2.859
						l-0.105,1.303l-0.314,1.024l-0.707,1.193l-2.143,1.587l0.204-1.487l0.208-1.945l-0.1-1.577l-0.614-2.587l0.198,1.85
						l-0.198,2.232l-0.62,1.655l-0.603,1.302l-1.944,2.034l0.304-3.145v-1.673l-0.198-1.478l-0.812,3.897l-1.217,2.587l-0.824,1.104
						l-2.132,1.581l0.096-1.206l0.403-1.846l0.414-2.044l0.202-1.295l-1.423,2.959l-1.223,2.602l-1.437,1.295l-1.628,1.478
						l0.209-1.849l0.595-2.595l0.21-1.851l-1.424,1.666l-2.24,2.413l-1.414,1.097l0.6-2.031l0.415-1.483l0.811-2.031l0.618-1.67
						l-0.828,0.552l-1.21,0.742h-0.818l0.072-0.644"/>
				</g>
				<path id="path2948" fill="#231F20" d="M24.185,901.054l0.818-0.748l1.453-0.365l1.655-0.376l1.447-0.737l-0.825-0.748
					l-2.277-0.183l-1.87-0.191l-0.191-1.474"/>
				<g id="g2950" transform="matrix(1.013702,0,0,-1,-4.251984,420.9449)">
					<path id="path2952" fill="none" stroke="#231F20" stroke-width="0.043" stroke-miterlimit="10" d="M28.053-480.107l0.807,0.746
						l1.433,0.365l1.633,0.376l1.427,0.737l-0.814,0.748l-2.247,0.183l-1.845,0.191l-0.188,1.474"/>
				</g>
				<path id="path2954" fill="#231F20" d="M28.937,899.196l-3.512,0.557l-0.422-0.557v-0.749l0.52-0.642l1.959,0.18l1.251,0.095
					L28.937,899.196l-0.826,0.369L28.937,899.196L28.937,899.196z"/>
				<path id="path2956" fill="#231F20" d="M34.308,904.942l-1.043-1.488l1.251-0.367L34.308,904.942L34.308,904.942z"/>
				<g id="g2958" transform="matrix(1.013702,0,0,-1,-4.251984,420.9449)">
					<path id="path2960" fill="none" stroke="#231F20" stroke-width="0.043" stroke-miterlimit="10" d="M38.038-483.997
						l-1.029,1.488l1.234,0.367L38.038-483.997z"/>
				</g>
				<path id="path2962" fill="#EE293D" d="M18.048,855.783v-2.954l-0.42-2.227l-1.337-2.412l-1.967-2.412l-1.444-1.296"/>
				<g id="g2964" transform="matrix(1.013702,0,0,-1,-4.251984,420.9449)">
					<path id="path2966" fill="none" stroke="#231F20" stroke-width="0.087" stroke-miterlimit="10" d="M21.999-434.835v2.952
						l-0.415,2.226l-1.322,2.412l-1.937,2.414l-1.424,1.294"/>
				</g>
				<path id="path2968" fill="#EE293D" d="M22.301,840.424l3.741-0.396l8.673,1.305l5.585,1.112h3.934l1.637-1.666v-2.591
					l-0.822-2.774l-1.027-2.793l0.61-2.218"/>
				<g id="g2970" transform="matrix(1.013702,0,0,-1,-4.251984,420.9449)">
					<path id="path2972" fill="none" stroke="#231F20" stroke-width="0.087" stroke-miterlimit="10" d="M26.194-419.48l3.69,0.396
						l8.555-1.305l5.51-1.113h3.88l1.615,1.666v2.591l-0.811,2.774l-1.013,2.793l0.602,2.218"/>
				</g>
				<path id="path2974" fill="#EE293D" d="M38.444,841.567l-1.038-1.301l-1.854-1.482l-1.866-0.555l-1.654-0.555l2.683-0.736
					l3.514-0.19l3.721-0.552l3.541,0.699"/>
				<g id="g2976" transform="matrix(1.013702,0,0,-1,-4.251984,420.9449)">
					<path id="path2978" fill="none" stroke="#231F20" stroke-width="0.087" stroke-miterlimit="10" d="M42.118-420.622
						l-1.023,1.301l-1.829,1.482l-1.841,0.555l-1.632,0.555l2.647,0.736l3.467,0.19l3.671,0.552l3.493-0.702"/>
				</g>
				<path id="path2980" fill="#231F20" d="M45.49,836.896l0.176,0.042"/>
				<g id="g2982" transform="matrix(1.013702,0,0,-1,-4.251984,420.9449)">
					<path id="path2984" fill="none" stroke="#231F20" stroke-width="0.043" stroke-miterlimit="10" d="M49.07-415.951l0.173-0.042"
						/>
				</g>
				<path id="path2986" fill="#F14729" d="M27.483,869.552l3.308-2.598l3.303-1.104"/>
				<g id="g2988" transform="matrix(1.013702,0,0,-1,-4.251984,420.9449)">
					<path id="path2990" fill="none" stroke="#231F20" stroke-width="0.087" stroke-miterlimit="10" d="M31.306-448.607l3.263,2.598
						l3.258,1.104"/>
				</g>
				<path id="path2992" fill="#F14729" d="M10.404,863.199l-4.123-3.518l-3.312-2.403l-2.9-1.667"/>
				<g id="g2994" transform="matrix(1.013702,0,0,-1,-4.251984,420.9449)">
					<path id="path2996" fill="none" stroke="#231F20" stroke-width="0.043" stroke-miterlimit="10" d="M14.458-442.254
						l-4.067,3.518l-3.268,2.403l-2.861,1.667"/>
				</g>
				<path id="path2998" fill="#1B4F9C" d="M36.897,947.416c4.855-0.073,26.77,0.004,26.77,0.004l-0.078,31.931l-62.886,0.059V947.42
					h26.958C27.662,947.42,31.695,941.564,36.897,947.416"/>
				<g id="g3000" transform="matrix(1.013702,0,0,-1,-4.251984,420.9449)">
					<path id="path3002" fill="none" stroke="#231F20" stroke-width="0.095" stroke-miterlimit="10" d="M40.593-526.471
						c4.79,0.073,26.408-0.004,26.408-0.004l-0.077-31.931l-62.036-0.059v31.991h26.594
						C31.483-526.475,35.461-520.619,40.593-526.471z"/>
				</g>
			</g>
		</g>
	</g>
	<g id="g3004" transform="matrix(1.25,0,0,-1.25,217.83716,1397.5022)">
		<g>
			<defs>
				<rect id="SVGID_3_" x="-172.928" y="577.272" width="415.908" height="550.803"/>
			</defs>
			<clipPath id="SVGID_4_">
				<use xlink:href="#SVGID_3_"  overflow="visible"/>
			</clipPath>
			<g id="g3006" clip-path="url(#SVGID_4_)">
				<g id="g3012" transform="matrix(1.013702,0,0,-1,-4.251984,420.9449)">
					<path id="path3014" fill="none" stroke="#FFFFFF" stroke-width="0.884" stroke-miterlimit="10" d="M-67.681-626.119
						c-4.685,157.76-19.687,205.101,102.656,263.927c122.351-58.826,107.338-106.166,102.667-263.927H-67.681z"/>
				</g>
				<g id="g3016" transform="matrix(1.013702,0,0,-1,-4.251984,420.9449)">
					<path id="path3018" fill="none" stroke="#1B4F9C" stroke-width="1.767" stroke-miterlimit="10" d="M-71.922-630.183
						C-76.804-467.331-92.42-418.027,34.976-356.77c127.396-61.258,111.781-110.561,106.882-273.413H-71.922z"/>
				</g>
			</g>
		</g>
	</g>
	<path id="path3028" fill="#1B4F9C" d="M128.105,168.255l245.542,142.342l1.025,0.568c13.562-35.978,13.334-80.635,11.024-143.526
		l-0.221,0.598L139.013,311.116l-0.088,0.05c-13.52-35.858-13.317-80.331-11.034-142.889l0.214-0.027V168.255z"/>
	<path id="path3030" fill="#EE293D" d="M385.379,160.931l-3.566-68.965l-249.939,0.145l-2.854,68.965L385.379,160.931z"/>
	<path id="path3032" fill="#FFFFFF" d="M268.648,152.719c-1.265,0.794-2.655,1.471-4.134,2.011l4.021-1.247
		c11.566-3.881,19.775-13.427,19.775-24.599c0-14.6-13.98-26.424-31.261-26.424c-17.27,0-31.264,11.825-31.264,26.424
		c0,10.736,7.57,19.983,18.456,24.103c0.624,0.254,1.256,0.46,1.91,0.667l-0.243,0.048c-6.05-3.03-10.098-8.606-10.098-14.982
		c0-9.62,9.226-17.423,20.594-17.423c11.383,0,20.614,7.803,20.614,17.423C277.021,144.46,273.724,149.549,268.648,152.719"/>
	<g id="g3034" transform="matrix(1.2671275,0,0,1.25,212.52218,871.32103)">
		<path id="path3036" fill="none" stroke="#231F20" stroke-width="0.133" stroke-miterlimit="10" d="M44.294-574.881
			c-0.998,0.636-2.096,1.177-3.262,1.609l3.174-0.998c9.128-3.102,15.606-10.741,15.606-19.679c0-11.68-11.033-21.139-24.671-21.139
			c-13.629,0-24.673,9.46-24.673,21.139c0,8.589,5.974,15.987,14.565,19.282c0.492,0.203,0.991,0.368,1.507,0.534l-0.192,0.038
			c-4.774-2.424-7.969-6.885-7.969-11.986c0-7.696,7.281-13.939,16.252-13.939c8.983,0,16.268,6.243,16.268,13.939
			C50.901-581.489,48.299-577.418,44.294-574.881L44.294-574.881z"/>
	</g>
	<g id="g3038" transform="matrix(1.2671275,0,0,1.25,212.52218,871.32103)">
		<path id="path3040" fill="none" stroke="#231F20" stroke-width="0.221" stroke-miterlimit="10" d="M45.791-575.584
			c5.233-3.179,8.663-8.546,8.663-14.641c0-9.752-8.794-17.655-19.62-17.655c-10.834,0-19.624,7.904-19.624,17.655
			c0,6.095,3.43,11.462,8.646,14.641"/>
	</g>
	<path id="path3042" fill="#FFF200" d="M178.023,99.861l24.335,27.654l-24.335,27.66l-24.889-27.66L178.023,99.861z"/>
	<g id="g3044" transform="matrix(1.2671275,0,0,1.25,212.52218,871.32103)">
		<path id="path3046" fill="none" stroke="#231F20" stroke-width="0.2" stroke-miterlimit="10" d="M-27.226-617.168l19.205,22.123
			l-19.205,22.128l-19.642-22.128L-27.226-617.168L-27.226-617.168z"/>
	</g>
	<path id="path3048" fill="#EE293D" d="M178.146,111.159l14.525,16.628l-14.262,16.233l-15.013-16.514L178.146,111.159
		L178.146,111.159z"/>
	<g id="g3050" transform="matrix(1.2671275,0,0,1.25,212.52218,871.32103)">
		<path id="path3052" fill="none" stroke="#231F20" stroke-width="0.131" stroke-miterlimit="10" d="M-27.13-608.13l11.463,13.299
			l-11.255,12.99l-11.848-13.211L-27.13-608.13z"/>
	</g>
	<path id="path3054" fill="#FFF200" d="M336.401,98.995l24.317,27.66l-24.317,27.641l-24.896-27.641L336.401,98.995z"/>
	<g id="g3056" transform="matrix(1.2671275,0,0,1.25,212.52218,871.32103)">
		<path id="path3058" fill="none" stroke="#231F20" stroke-width="0.2" stroke-miterlimit="10" d="M97.764-617.861l19.191,22.128
			L97.764-573.62l-19.648-22.113L97.764-617.861z"/>
	</g>
	<path id="path3060" fill="#EE293D" d="M336.253,110.267l14.533,16.624l-14.276,16.243l-15.01-16.537L336.253,110.267
		L336.253,110.267z"/>
	<g id="g3062" transform="matrix(1.2671275,0,0,1.25,212.52218,871.32103)">
		<path id="path3064" fill="none" stroke="#231F20" stroke-width="0.131" stroke-miterlimit="10" d="M97.647-608.843l11.469,13.299
			L97.849-582.55l-11.846-13.229L97.647-608.843L97.647-608.843z"/>
	</g>
	<g id="g3066" transform="matrix(1.2671275,0,0,1.25,212.52218,871.32103)">
		<path id="path3068" fill="none" stroke="#FFFFFF" stroke-width="0.8" stroke-miterlimit="10" d="M-67.681-626.119
			c-4.685,157.76-19.686,205.101,102.656,263.927c122.351-58.826,107.338-106.166,102.667-263.927H-67.681z"/>
	</g>
	<path id="path3070" fill="#1B4F9C" d="M204.793,288.524l-3.205-0.968h-2.41l-1.334,1.684l1.593,0.238l1.607,1.189l1.075,1.934
		l2.394-0.955l0.28-1.922V288.524L204.793,288.524z"/>
	<path id="path3072" fill="#1B4F9C" d="M189.276,298.693l-1.888-0.475l-2.13,0.475l0.805-1.677l0.804-1.677l1.062-0.713l1.347-0.241
		h2.13l0.267,2.631L189.276,298.693L189.276,298.693z"/>
	<path id="path3074" fill="#1B4F9C" d="M179.444,307.707l-2.133,0.709l-1.063,1.439v-2.631l0.259-1.666l1.608-1.447l1.076-1.918
		l1.325,1.681l-0.258,2.389L179.444,307.707L179.444,307.707z"/>
	<path id="path3076" fill="#1B4F9C" d="M179.536,315.437l-2.137,1.441l-2.402,0.946v-1.423l0.8-1.685l0.795-1.673l1.342-0.955h2.139
		l0.268,2.158L179.536,315.437L179.536,315.437z"/>
	<path id="path3078" fill="#1B4F9C" d="M181.492,331.943l-2.398-1.204l-1.875,0.249l-1.338,0.955v-1.67l1.611-1.682l1.87-1.201
		l2.413-0.472l0.525,1.673L181.492,331.943L181.492,331.943z"/>
	<path id="path3080" fill="#1B4F9C" d="M175.959,345.343l-1.589,1.193l-1.618,1.441l-1.071,1.919l-0.795,1.914l-1.075-2.629
		l0.267-3.119l1.603-2.388l2.947,0.227h0.26L175.959,345.343L175.959,345.343z"/>
	<path id="path3082" fill="#1B4F9C" d="M180.337,356.571l-2.403,2.163l-0.795,1.199l-0.271,1.912l-1.071-3.6l0.271-2.861l0.8-2.163
		l2.137,0.957h0.26l0.808,1.206L180.337,356.571L180.337,356.571z"/>
	<path id="path3084" fill="#1B4F9C" d="M192.219,361.991l1.066,1.679l1.888,1.655l1.6,0.5l-1.063,0.479h-1.884l-2.67-0.72
		l-1.588-0.962l-0.817-1.435l-0.523-2.156l1.34-0.474L192.219,361.991L192.219,361.991z"/>
	<path id="path3086" fill="#1B4F9C" d="M215.521,384.909v2.174l1.068,2.144l2.41,1.915l2.933,0.97h2.129l-1.611-1.921l-0.789-2.621
		l0.54-2.161l-2.411-0.973l-2.669,0.247L215.521,384.909L215.521,384.909z"/>
	<path id="path3088" fill="#1B4F9C" d="M206.168,379.391l-2.523,1.185l-2.017,2.876l-0.93-2.973l0.148-3.722l0.782-2.641
		l1.616,0.483l1.607,0.962l1.068,1.441L206.168,379.391L206.168,379.391z"/>
	<path id="path3090" fill="#1B4F9C" d="M205.422,368.892l-3.481,0.223l-3.004,1.63l0.338-3.057l1.332-2.149l2.682-1.684l2.938-0.478
		l0.258,1.67v2.146L205.422,368.892L205.422,368.892z"/>
	<path id="path3092" fill="#1B4F9C" d="M214.775,358.428l-2.919-1.455h-2.407l-2.142,0.96l0.808-1.671l1.852-1.684l3.483-0.237
		l3.202,0.237l-0.528,1.441L214.775,358.428z"/>
	<path id="path3094" fill="#1B4F9C" d="M257.509,402.978l-2.009,0.72l-1.873,0.832l-1.866,2.63l-0.401-2.74l1.064-2.159l1.597-1.445
		l2.538-1.067l1.472,1.789L257.509,402.978z"/>
	<path id="path3096" fill="#1B4F9C" d="M249.864,395.652l-1.876,1.438l-0.813,0.708l-0.663,1.081l-1.071,1.677l-1.054-2.988
		l0.388-2.522l2.146-2.983l1.589,0.232l1.88,0.953v1.22L249.864,395.652L249.864,395.652z"/>
	<path id="path3098" fill="#1B4F9C" d="M252.547,386.433l-3.2,0.484l-2.123,0.957l-0.815,2.15l-0.261-2.15l0.795-2.883l2.14-1.661
		l3.465-0.973l0.271,1.915L252.547,386.433L252.547,386.433z"/>
	<path id="path3100" fill="#1B4F9C" d="M260.05,378.604l-2.139-1.2h-2.665l-1.598,1.2l1.194-3.592l3.331-1.204l1.332,0.973
		l0.816,1.677L260.05,378.604L260.05,378.604z"/>
	<path id="path3102" fill="#EE293D" d="M257.938,212.609c8.776-9.437,26.327,3.947,35.414-3.11v-36.826
		c-1.132,0.882-3.898,0.092-5.181-2.125c-9.255,12.343-22.549-3.03-30.233,5.225"/>
	<g id="g3104" transform="matrix(1.2671275,0,0,1.25,212.52218,871.32103)">
		<path id="path3106" fill="none" stroke="#231F20" stroke-width="0.133" stroke-miterlimit="10" d="M35.842-526.97
			c6.926-7.55,20.777,3.158,27.948-2.488v-29.461c-0.893,0.706-3.077,0.074-4.089-1.7c-7.304,9.874-17.795-2.424-23.86,4.18"/>
	</g>
	<path id="path3108" fill="#EE293D" d="M257.938,212.609c-8.765-9.437-26.32,3.947-35.408-3.11v-36.826
		c1.292,0.996,4.539-0.216,5.202-2.125c6.161,11.561,22.679-2.872,30.206,5.225"/>
	<g id="g3110" transform="matrix(1.2671275,0,0,1.25,212.52218,871.32103)">
		<path id="path3112" fill="none" stroke="#231F20" stroke-width="0.133" stroke-miterlimit="10" d="M35.842-526.97
			c-6.917-7.55-20.771,3.158-27.944-2.488v-29.461c1.019,0.797,3.582-0.173,4.105-1.7c4.862,9.249,17.898-2.297,23.838,4.18"/>
	</g>
	<path id="path3114" fill="#FFFFFF" d="M257.938,209.657c-8.765-9.445-21.126,3.468-30.206-3.584v-35.526
		c9.08,7.052,21.441-6.333,30.206,3.1V209.657L257.938,209.657z"/>
	<g id="g3116" transform="matrix(1.2671275,0,0,1.25,212.52218,871.32103)">
		<path id="path3118" fill="none" stroke="#363639" stroke-width="0.133" stroke-miterlimit="10" d="M35.842-529.331
			c-6.917-7.556-16.672,2.775-23.838-2.867v-28.421c7.166,5.642,16.921-5.066,23.838,2.48V-529.331z"/>
	</g>
	<path id="path3120" fill="#FFFFFF" d="M257.938,209.657c8.776-9.445,21.12,3.468,30.233-3.584v-35.526
		c-9.113,7.052-21.457-6.333-30.233,3.1V209.657L257.938,209.657z"/>
	<g id="g3122" transform="matrix(1.2671275,0,0,1.25,212.52218,871.32103)">
		<path id="path3124" fill="none" stroke="#363639" stroke-width="0.133" stroke-miterlimit="10" d="M35.842-529.331
			c6.926-7.556,16.668,2.775,23.86-2.867v-28.421c-7.192,5.642-16.934-5.066-23.86,2.48V-529.331z"/>
	</g>
	<path id="path3126" fill="#FFFFFF" d="M257.938,209.657c-8.765-9.445-21.126,3.468-30.206-3.584v-35.526
		c9.08,7.052,21.441-6.333,30.206,3.1V209.657L257.938,209.657z"/>
	<g id="g3128" transform="matrix(1.2671275,0,0,1.25,212.52218,871.32103)">
		<path id="path3130" fill="none" stroke="#231F20" stroke-width="0.177" stroke-miterlimit="10" d="M35.842-529.331
			c-6.917-7.556-16.672,2.775-23.838-2.867v-28.421c7.166,5.642,16.921-5.066,23.838,2.48V-529.331z"/>
	</g>
	<path id="path3132" fill="#FFFFFF" d="M257.938,209.657c8.776-9.445,21.12,3.468,30.233-3.584v-35.526
		c-9.113,7.052-21.457-6.333-30.233,3.1V209.657L257.938,209.657z"/>
	<g id="g3134" transform="matrix(1.2671275,0,0,1.25,212.52218,871.32103)">
		<path id="path3136" fill="none" stroke="#231F20" stroke-width="0.177" stroke-miterlimit="10" d="M35.842-529.331
			c6.926-7.556,16.668,2.775,23.86-2.867v-28.421c-7.192,5.642-16.934-5.066-23.86,2.48V-529.331z M11.972-553.769
			c7.177,5.633,16.918-5.076,23.846,2.479 M11.972-539.146c7.177,5.638,16.918-5.061,23.846,2.487 M11.972-546.488
			C19.15-540.85,28.89-551.56,35.818-544"/>
	</g>
	<path id="path3138" fill="#FFFFFF" d="M257.046,175.878h-1.984v28.642h1.984V175.878z"/>
	<g id="g3140" transform="matrix(1.2671275,0,0,1.25,212.52218,871.32103)">
		<path id="path3142" fill="none" stroke="#FFFFFF" stroke-width="0.177" stroke-miterlimit="10" d="M35.137-533.441v-22.914h-1.569
			v22.914H35.137z"/>
	</g>
	<path id="path3144" fill="#FFFFFF" d="M230.548,174.244h-1.994v28.643h1.994V174.244z"/>
	<g id="g3146" transform="matrix(1.2671275,0,0,1.25,212.52218,871.32103)">
		<path id="path3148" fill="none" stroke="#FFFFFF" stroke-width="0.177" stroke-miterlimit="10" d="M14.226-534.747v-22.914h-1.574
			v22.914H14.226z"/>
	</g>
	<g id="g3150" transform="matrix(1.2671275,0,0,1.25,212.52218,871.32103)">
		<path id="path3152" fill="none" stroke="#231F20" stroke-width="0.177" stroke-miterlimit="10" d="M59.604-553.769
			c-7.18,5.633-16.924-5.076-23.85,2.479 M59.604-539.146c-7.18,5.638-16.924-5.061-23.85,2.487 M59.604-546.488
			c-7.18,5.638-16.924-5.072-23.85,2.48"/>
	</g>
	<path id="path3154" fill="#FFFFFF" d="M258.692,175.878h1.98v28.642h-1.98V175.878z"/>
	<g id="g3156" transform="matrix(1.2671275,0,0,1.25,212.52218,871.32103)">
		<path id="path3158" fill="none" stroke="#FFFFFF" stroke-width="0.177" stroke-miterlimit="10" d="M36.437-533.441v-22.914h1.561
			v22.914H36.437z"/>
	</g>
	<path id="path3160" fill="#FFFFFF" d="M285.335,173.782h2.002v28.638h-2.002V173.782z"/>
	<g id="g3162" transform="matrix(1.2671275,0,0,1.25,212.52218,871.32103)">
		<path id="path3164" fill="none" stroke="#FFFFFF" stroke-width="0.177" stroke-miterlimit="10" d="M57.463-535.12v-22.911h1.58
			v22.911H57.463z"/>
	</g>
</g>
</svg>
