<?xml version="1.0" encoding="utf-8"?>
<!-- Generator: Adobe Illustrator 16.0.0, SVG Export Plug-In . SVG Version: 6.00 Build 0)  -->
<!DOCTYPE svg PUBLIC "-//W3C//DTD SVG 1.1//EN" "http://www.w3.org/Graphics/SVG/1.1/DTD/svg11.dtd">
<svg version="1.1" id="Layer_1" xmlns="http://www.w3.org/2000/svg" xmlns:xlink="http://www.w3.org/1999/xlink" x="0px" y="0px"
	 width="512px" height="512px" viewBox="0 0 512 512" enable-background="new 0 0 512 512" xml:space="preserve">
<g id="logo" transform="matrix(0.73333333,0,0,0.73333333,517.83324,9.8337209)">
	<path id="roundel" fill="#F47421" d="M-9.209,335.027c0,192.467-156.033,348.495-348.506,348.495
		c-192.465,0-348.484-156.029-348.484-348.495c0-192.471,156.019-348.501,348.484-348.501
		C-165.241-13.474-9.209,142.556-9.209,335.027"/>
	<path id="circle-of-friends" fill="#FFFFFF" d="M-262.483,170.081c22.26,12.842,50.702,5.231,63.549-17.022
		c12.836-22.25,5.23-50.696-17.031-63.542c-22.247-12.846-50.688-5.231-63.534,17.03
		C-292.346,128.788-284.73,157.23-262.483,170.081z M-357.705,470.937c-20.449,0-39.852-4.55-57.249-12.64l-32.33,57.933
		c27.008,13.377,57.4,20.934,89.579,20.934c18.701,0,36.812-2.607,54.006-7.369c3.032-18.676,14.136-35.918,31.824-46.123
		c17.642-10.195,38.103-11.209,55.792-4.518c34.413-33.833,56.768-79.855,60.035-131.104l-66.312-0.976
		C-228.448,416.509-286.705,470.937-357.705,470.937z M-357.705,199.111c71,0,129.257,54.44,135.345,123.857l66.312-0.963
		c-3.267-51.255-25.621-97.28-60.047-131.097c-17.677,6.67-38.138,5.664-55.78-4.543c-17.689-10.202-28.792-27.426-31.824-46.111
		c-17.195-4.755-35.305-7.358-54.006-7.358c-32.179,0-62.571,7.557-89.579,20.932l32.344,57.923
		C-397.557,203.659-378.154,199.111-357.705,199.111z M-493.624,335.027c0-45.995,22.859-86.6,57.811-111.188l-34.024-56.996
		c-40.725,27.215-71.01,68.802-83.574,117.512c14.679,11.982,24.069,30.228,24.069,50.672c0,20.443-9.39,38.69-24.069,50.672
		c12.564,48.717,42.837,90.297,83.574,117.5l34.024-56.978C-470.765,421.632-493.624,381.01-493.624,335.027z M-262.47,499.968
		c-22.26,12.856-29.876,41.298-17.029,63.549c12.856,22.247,41.287,29.863,63.534,17.016c22.26-12.847,29.889-41.287,17.031-63.537
		C-211.769,494.746-240.223,487.12-262.47,499.968z M-594.675,288.503c-25.705,0-46.518,20.819-46.518,46.523
		c0,25.693,20.813,46.521,46.518,46.521c25.69,0,46.515-20.829,46.515-46.521C-548.16,309.323-568.985,288.503-594.675,288.503"/>
</g>
</svg>
