<?xml version="1.0" encoding="utf-8"?>
<!-- Generator: Adobe Illustrator 16.0.0, SVG Export Plug-In . SVG Version: 6.00 Build 0)  -->
<!DOCTYPE svg PUBLIC "-//W3C//DTD SVG 1.1//EN" "http://www.w3.org/Graphics/SVG/1.1/DTD/svg11.dtd">
<svg version="1.1" id="Layer_1" xmlns="http://www.w3.org/2000/svg" xmlns:xlink="http://www.w3.org/1999/xlink" x="0px" y="0px"
	 width="512px" height="512px" viewBox="0 0 512 512" enable-background="new 0 0 512 512" xml:space="preserve">
<g id="layer1" transform="translate(-313.03964,-301.79625)">
	<g id="g2554" transform="matrix(2.5585897,0,0,2.5585897,313.03964,301.79625)">
		<g id="g8" transform="translate(-2.73438e-2,-599.527)">
			<path id="path10" fill="#FF7003" d="M126.568,749.141v-53.525h11.24v53.525H126.568z"/>
		</g>
		<g id="g12" transform="translate(-2.73438e-2,-599.527)">
			<path id="path14" fill="#FF7003" d="M65.883,749.141v-53.525h10.883v53.525H65.883z"/>
		</g>
		<g id="g16" transform="translate(-2.73438e-2,-599.527)">
			<path id="path18" fill="#FF7003" d="M80.512,749.141v-53.525h11.599v53.525H80.512z"/>
		</g>
		<g id="g20" transform="translate(-2.73438e-2,-599.527)">
			<path id="path22" fill="#FF7003" d="M95.864,749.141v-53.525h11.604v53.525H95.864z"/>
		</g>
		<g id="g24" transform="translate(-2.73438e-2,-599.527)">
			<path id="path26" fill="#FF7003" d="M122.821,695.616v53.525h-11.606v-53.525H122.821z"/>
		</g>
		<g id="g28" transform="translate(-2.73438e-2,-599.527)">
			<path id="path30" fill="#FF7003" d="M132.982,691.832H70.463l32.086-19.74L132.982,691.832z"/>
		</g>
		<g id="g32" transform="translate(-2.73438e-2,-599.527)">
			<path id="path34" fill="#FF7003" d="M63.266,691.832H36.488v-19.945h59.198L63.266,691.832z"/>
		</g>
		<g id="g36" transform="translate(-2.73438e-2,-599.527)">
			<path id="path38" fill="#FF7003" d="M109.173,671.887h57.672v19.945h-26.938L109.173,671.887z"/>
		</g>
		<g id="g40" transform="translate(-2.73438e-2,-599.527)">
			<path id="path42" fill="#FF7003" d="M158.593,668.109H44.741c11.148-20.11,32.463-33.703,56.925-33.703
				C126.123,634.405,147.438,647.998,158.593,668.109z"/>
		</g>
		<g id="g44" transform="translate(-2.73438e-2,-599.527)">
			<path id="path46" fill="#FF7003" d="M55.062,745.981l-0.648,1.999l1.698-1.234l1.704,1.234l-0.654-1.999l1.703-1.234h-2.105
				l-0.648-1.994l-0.648,1.994h-2.099L55.062,745.981z M45.784,733.616l-0.654,2l1.698-1.234l1.704,1.234l-0.648-2l1.698-1.235
				h-2.099l-0.655-1.999l-0.648,1.999H44.08L45.784,733.616z M39.401,718.524l-0.654,1.994l1.697-1.237l1.704,1.237l-0.648-1.994
				l1.698-1.241h-2.099l-0.654-1.994l-0.648,1.994h-2.099L39.401,718.524z M62.136,749.141H36.488v-47.796l0.858,0.622l-0.654,2
				l1.698-1.24l1.704,1.24l-0.648-2l1.697-1.235h-2.098l-0.655-2l-0.648,2h-1.253v-5.117h25.648V749.141z"/>
		</g>
		<g id="g48" transform="translate(-2.73438e-2,-599.527)">
			<path id="path50" fill="#FF7003" d="M62.136,752.924v14.205H36.488v-14.205H62.136z"/>
		</g>
		<g id="g52" transform="translate(-2.73438e-2,-599.527)">
			<path id="path54" fill="#FF7003" d="M141.555,752.924h25.29v14.205h-25.29V752.924z"/>
		</g>
		<g id="g56" transform="translate(-2.73438e-2,-599.527)">
			<path id="path58" fill="#FF7003" d="M119.068,763.042l1.703-1.235h-2.105l-0.648-2l-0.649,2h-2.099l1.698,1.235l-0.649,1.999
				l1.698-1.234l1.703,1.234L119.068,763.042z M134.093,756.987l1.703-1.236h-2.099l-0.648-2l-0.654,2h-2.099l1.698,1.236
				l-0.648,1.998l1.703-1.234l1.697,1.234L134.093,756.987z M84.265,763.042l-0.654,1.999l1.704-1.234l1.697,1.234l-0.648-1.999
				l1.698-1.235h-2.099l-0.648-2l-0.648,2h-2.105L84.265,763.042z M69.241,756.987l-0.654,1.998l1.698-1.234l1.704,1.234
				l-0.648-1.998l1.698-1.236h-2.099l-0.654-2l-0.648,2h-2.099L69.241,756.987z M137.808,752.924v14.205h-34.413l-0.592-1.829
				l1.697-1.234h-2.099l-0.648-2.002l-0.654,2.002H99l1.704,1.234l-0.599,1.829H65.883v-14.205H137.808z M103.223,767.13h-2.945
				l1.475-1.069L103.223,767.13z"/>
		</g>
		<g id="g60" transform="translate(-2.73438e-2,-599.527)">
			<path id="path62" fill="#FF7003" d="M148.272,745.981l1.697-1.234h-2.099l-0.648-1.994l-0.648,1.994h-2.105l1.703,1.234
				l-0.648,1.999l1.697-1.234l1.697,1.234L148.272,745.981z M157.55,733.616l1.703-1.235h-2.099l-0.647-1.999l-0.654,1.999h-2.098
				l1.697,1.235l-0.648,2l1.704-1.234l1.697,1.234L157.55,733.616z M163.932,718.524l1.703-1.241h-2.098l-0.649-1.994l-0.653,1.994
				h-2.099l1.697,1.241l-0.648,1.994l1.703-1.237l1.698,1.237L163.932,718.524z M166.845,749.141h-25.29v-53.525h25.29v5.117h-1.252
				l-0.649-2l-0.654,2h-2.099l1.697,1.235l-0.647,2l1.703-1.24l1.698,1.24l-0.655-2l0.858-0.622V749.141z"/>
		</g>
	</g>
</g>
</svg>
