<?xml version="1.0" encoding="utf-8"?>
<!-- Generator: Adobe Illustrator 16.0.0, SVG Export Plug-In . SVG Version: 6.00 Build 0)  -->
<!DOCTYPE svg PUBLIC "-//W3C//DTD SVG 1.1//EN" "http://www.w3.org/Graphics/SVG/1.1/DTD/svg11.dtd">
<svg version="1.1" id="Layer_1" xmlns="http://www.w3.org/2000/svg" xmlns:xlink="http://www.w3.org/1999/xlink" x="0px" y="0px"
	 width="512px" height="512px" viewBox="0 0 512 512" enable-background="new 0 0 512 512" xml:space="preserve">
<g id="layer1" transform="translate(-559.08003,-313.13162)">
	<g id="g6545" transform="matrix(3.9408543,0,0,3.9408543,-960.05773,-2371.0274)">
		<g id="g1338" transform="matrix(1.25,0,0,-1.25,-46.875,1061.1122)">
			<g>
				<defs>
					<rect id="SVGID_1_" x="150.649" y="133.314" width="495.502" height="241.759"/>
				</defs>
				<clipPath id="SVGID_2_">
					<use xlink:href="#SVGID_1_"  overflow="visible"/>
				</clipPath>
				<g id="g1340" clip-path="url(#SVGID_2_)">
					<g id="g1346" transform="translate(405.717,287.389)">
						<path id="path1348" fill="#FFFFFF" d="M41.208-36.094c-0.643,0.485-0.749,0.56-4.61,1.832c3.345,0.823,3.488,0.91,4.081,1.3
							c1.343,0.91,2.06,2.42,1.955,4.055l-0.013,0.178c-0.273,2.624-3.654,7.576-5.93,8.688c-1.501,0.717-3.171,0.616-4.486-0.268
							c-0.62-0.41-0.702-0.466-3.244-3.936c-0.248,4.055-0.725,11.205-0.842,11.874l-0.025,0.154l-0.038,0.149
							c-0.435,1.571-1.666,2.75-3.298,3.16c-2.724,0.679-9.926-1.351-11.859-3.343c-1.135-1.184-1.571-2.778-1.179-4.273
							l0.079-0.297l0.134-0.276c0.185-0.381,0.673-1.189,4.853-7.748l1.541-2.428c-3.743,1.531-3.892,1.536-4.666,1.543
							c-1.475,0.065-2.953-0.725-3.843-2.119l-0.017-0.027c-0.459-0.74-0.743-1.746-0.92-2.799
							c-1.206,1.625-3.021,2.928-5.772,3.468c-1.951,0.391-3.781,0.155-5.505-0.542c-1.579,1.008-3.749,1.125-5.564,0.089
							c-0.56-0.319-0.979-0.699-1.308-1.103v2.226l-0.173,1.323l-0.053,0.238c-0.365,1.435-1.449,2.646-2.899,3.241l-0.013,0.007
							c-1.592,0.642-3.378,0.489-4.892-0.418c-1.614-0.953-2.441-2.535-2.441-4.699v-4.54c-0.575,0.895-1.285,1.671-2.126,2.309
							c-2.266,1.718-5.305,2.297-8.784,1.673c-2.017-0.35-3.703-1.23-5.039-2.522c-0.021,0.041-0.043,0.093-0.064,0.134
							c-0.679,1.216-1.781,2.051-3.191,2.421c-2.355,0.646-5.345-0.155-6.578-4.367c0,0-0.2-0.68-0.474-1.61
							c-0.54,0.991-1.941,3.698-1.998,3.779c-1.262,1.913-3.789,2.742-6.049,1.843c-2.183-0.823-3.447-2.743-3.447-5.001
							c0-0.712,0.124-1.454,0.383-2.207l0.065-0.183c0,0,4.486-9.137,5.784-11.781c-2.086-0.55-3.573-2.106-3.814-4.24
							c-0.025-0.203-0.038-0.408-0.038-0.609c0-1.358,0.563-2.654,1.597-3.606c1.569-1.449,4.007-1.928,6.869-1.341
							c3.11,0.611,4.899,2.486,6.153,6.461l1.908,5.994c0.621-2.524,1.751-4.172,2.823-5.229c1.541-1.525,4.364-3.211,9.036-2.58
							c3.472,0.485,5.875,2.04,7.173,3.866l0.084-0.441c0.37-1.303,1.376-2.461,2.727-3.077c1.412-0.654,3.047-0.642,4.481,0.03
							c0.748,0.326,1.383,0.839,1.876,1.482v-1.89c0-3.123,1.807-4.451,2.884-4.967c1.406-0.707,3.089-0.763,4.553-0.127
							c1.384,0.599,2.412,1.741,2.815,3.127l0.063,0.213l0.188,1.288c0,0,0,0.497,0,0.553c1.878-0.192,3.839,0.114,5.565,1.009
							c0.763,0.396,1.431,0.874,2.026,1.422h1.269c0.69-0.363,1.475-0.59,2.319-0.59c0.847,0,1.63,0.227,2.319,0.59h3.678
							c2.436-1.371,5.997-2.409,7.903-2.083c1.642,0.291,2.935,1.348,3.481,2.829l0.028,0.074c0.231,0.674,0.269,0.8,0.286,4.606
							c2.088-3.373,2.197-3.462,2.783-3.924c1.261-0.983,2.917-1.199,4.447-0.583c2.456,0.986,6.208,5.756,6.585,8.374
							c0.031,0.228,0.049,0.459,0.049,0.685C42.858-38.21,42.267-36.94,41.208-36.094z M3.096-27.205
							c0.005-0.003,0.009-0.003,0.013-0.003c0.003-0.003,0.007-0.003,0.011-0.003L3.096-27.205z M36.227-48.64h-0.003
							c-0.005,0-0.007-0.005-0.012-0.007L36.227-48.64"/>
					</g>
					<g id="g1350" transform="translate(405.717,287.389)">
						<path id="path1352" fill="none" stroke="#BDBCBC" stroke-width="0.145" stroke-linecap="round" stroke-linejoin="round" d="
							M41.208-36.094c-0.643,0.485-0.749,0.56-4.61,1.832c3.345,0.823,3.488,0.91,4.081,1.3c1.343,0.91,2.06,2.42,1.955,4.055
							l-0.013,0.178c-0.273,2.624-3.654,7.576-5.93,8.688c-1.501,0.717-3.171,0.616-4.486-0.268c-0.62-0.41-0.702-0.466-3.244-3.936
							c-0.248,4.055-0.725,11.205-0.842,11.874l-0.025,0.154l-0.038,0.149c-0.435,1.571-1.666,2.75-3.298,3.16
							c-2.724,0.679-9.926-1.351-11.859-3.343c-1.135-1.184-1.571-2.778-1.179-4.273l0.079-0.297l0.134-0.276
							c0.185-0.381,0.673-1.189,4.853-7.748l1.541-2.428c-3.743,1.531-3.892,1.536-4.666,1.543
							c-1.475,0.065-2.953-0.725-3.843-2.119l-0.017-0.027c-0.459-0.74-0.743-1.746-0.92-2.799
							c-1.206,1.625-3.021,2.928-5.772,3.468c-1.951,0.391-3.781,0.155-5.505-0.542c-1.579,1.008-3.749,1.125-5.564,0.089
							c-0.56-0.319-0.979-0.699-1.308-1.103v2.226l-0.173,1.323l-0.053,0.238c-0.365,1.435-1.449,2.646-2.899,3.241l-0.013,0.007
							c-1.592,0.642-3.378,0.489-4.892-0.418c-1.614-0.953-2.441-2.535-2.441-4.699v-4.54c-0.575,0.895-1.285,1.671-2.126,2.309
							c-2.266,1.718-5.305,2.297-8.784,1.673c-2.017-0.35-3.703-1.23-5.039-2.522c-0.021,0.041-0.043,0.093-0.064,0.134
							c-0.679,1.216-1.781,2.051-3.191,2.421c-2.355,0.646-5.345-0.155-6.578-4.367c0,0-0.2-0.68-0.474-1.61
							c-0.54,0.991-1.941,3.698-1.998,3.779c-1.262,1.913-3.789,2.742-6.049,1.843c-2.183-0.823-3.447-2.743-3.447-5.001
							c0-0.712,0.124-1.454,0.383-2.207l0.065-0.183c0,0,4.486-9.137,5.784-11.781c-2.086-0.55-3.573-2.106-3.814-4.24
							c-0.025-0.203-0.038-0.408-0.038-0.609c0-1.358,0.563-2.654,1.597-3.606c1.569-1.449,4.007-1.928,6.869-1.341
							c3.11,0.611,4.899,2.486,6.153,6.461l1.908,5.994c0.621-2.524,1.751-4.172,2.823-5.229c1.541-1.525,4.364-3.211,9.036-2.58
							c3.472,0.485,5.875,2.04,7.173,3.866l0.084-0.441c0.37-1.303,1.376-2.461,2.727-3.077c1.412-0.654,3.047-0.642,4.481,0.03
							c0.748,0.326,1.383,0.839,1.876,1.482v-1.89c0-3.123,1.807-4.451,2.884-4.967c1.406-0.707,3.089-0.763,4.553-0.127
							c1.384,0.599,2.412,1.741,2.815,3.127l0.063,0.213l0.188,1.288c0,0,0,0.497,0,0.553c1.878-0.192,3.839,0.114,5.565,1.009
							c0.763,0.396,1.431,0.874,2.026,1.422h1.269c0.69-0.363,1.475-0.59,2.319-0.59c0.847,0,1.63,0.227,2.319,0.59h3.678
							c2.436-1.371,5.997-2.409,7.903-2.083c1.642,0.291,2.935,1.348,3.481,2.829l0.028,0.074c0.231,0.674,0.269,0.8,0.286,4.606
							c2.088-3.373,2.197-3.462,2.783-3.924c1.261-0.983,2.917-1.199,4.447-0.583c2.456,0.986,6.208,5.756,6.585,8.374
							c0.031,0.228,0.049,0.459,0.049,0.685C42.858-38.21,42.267-36.94,41.208-36.094z"/>
						<g id="g1354" transform="translate(-23.075,5.382)">
							<path id="path1356" fill="none" stroke="#BDBCBC" stroke-width="0.145" stroke-linecap="round" stroke-linejoin="round" d="
								M26.171-32.587c0.007-0.003,0.009-0.003,0.013-0.003c0.005-0.003,0.007-0.003,0.013-0.003L26.171-32.587z"/>
							<g id="g1358" transform="translate(20.06,-12.978)">
								<path id="path1360" fill="none" stroke="#BDBCBC" stroke-width="0.145" stroke-linecap="round" stroke-linejoin="round" d="
									M39.244-41.044h-0.005c-0.003,0-0.005-0.005-0.01-0.007L39.244-41.044z"/>
							</g>
						</g>
					</g>
				</g>
			</g>
		</g>
		<g id="g1362" transform="matrix(1.25,0,0,-1.25,438.16125,697.87345)">
			<path id="path1364" fill="#E9E9E9" d="M29.682-34.007c-0.596-0.955-0.846-3.954-0.639-5.948c0.071-0.657,0.188-1.206,0.365-1.531
				c0.238-0.454,0.638-0.725,1.093-0.74c0.289-0.015,0.473,0.033,5.969,1.806c0,0,2.443,0.776,2.456,0.781
				c0.604,0.157,1.017,0.715,1.057,1.43c0.039,0.735-0.342,1.381-0.963,1.616l-1.724,0.703c-5.91,2.438-6.172,2.53-6.473,2.534
				C30.369-33.335,29.964-33.568,29.682-34.007"/>
		</g>
		<g id="g1366" transform="matrix(1.25,0,0,-1.25,448.16,711.61345)">
			<path id="path1368" fill="#E9E9E9" d="M34.894-41.171c0.097,0.278,0.107,0.468,0.122,6.242c0,0,0.015,2.552,0.02,2.58
				c0.036,0.621-0.367,1.193-1.031,1.449c-0.682,0.264-1.417,0.102-1.832-0.413c0,0-1.202-1.427-1.208-1.429
				c-4.137-4.864-4.311-5.085-4.41-5.376c-0.063-0.168-0.088-0.347-0.068-0.529c0.026-0.256,0.14-0.515,0.337-0.746
				c0.958-1.145,5.561-2.838,7.028-2.587C34.364-41.887,34.737-41.597,34.894-41.171"/>
		</g>
		<g id="g1370" transform="matrix(1.25,0,0,-1.25,455.2225,710.0922)">
			<path id="path1372" fill="#E9E9E9" d="M38.576-40.377c1.39,0.553,4.42,4.405,4.631,5.885c0.073,0.517-0.088,0.959-0.444,1.245
				c-0.23,0.175-0.413,0.243-5.901,2.046c0,0-2.413,0.796-2.439,0.809c-0.587,0.228-1.251,0.018-1.698-0.535
				c-0.465-0.566-0.538-1.311-0.164-1.878l0.97-1.577c3.262-5.298,3.508-5.672,3.742-5.857
				C37.636-40.521,38.101-40.572,38.576-40.377"/>
		</g>
		<g id="g1374" transform="matrix(1.25,0,0,-1.25,453.07875,699.7722)">
			<path id="path1376" fill="#E9E9E9" d="M37.459-34.997c6.243,1.509,6.483,1.589,6.73,1.751c0.379,0.258,0.565,0.68,0.534,1.204
				c0,0.018,0.001,0.033,0,0.051c-0.162,1.531-2.846,5.52-4.169,6.167c-0.471,0.223-0.94,0.208-1.326-0.05
				c-0.241-0.162-0.421-0.393-3.76-4.968c0,0-1.511-2.058-1.53-2.076c-0.398-0.482-0.403-1.178-0.016-1.774
				c0.401-0.616,1.085-0.917,1.709-0.743c0,0-0.028-0.043-0.033-0.053C35.903-35.371,36.458-35.235,37.459-34.997"/>
		</g>
		<g id="g1378" transform="matrix(1.25,0,0,-1.25,448.33375,695.87095)">
			<path id="path1380" fill="#E9E9E9" d="M34.985-32.963c-0.109,2.474-0.85,13.489-0.938,13.998
				c-0.127,0.466-0.489,0.795-1.009,0.925c-1.591,0.396-7.684-1.313-8.812-2.478c-0.36-0.376-0.495-0.844-0.388-1.257
				c0.177-0.363,7.724-12.237,7.724-12.237c1.117-1.81,2.026-1.528,2.324-1.435C34.182-35.355,35.087-35.073,34.985-32.963"/>
		</g>
		<g id="g1382" transform="matrix(1.25,0,0,-1.25,438.53875,696.92845)">
			<path id="path1384" fill="#BF2519" d="M29.879-33.515c-0.595-0.953-0.846-3.954-0.639-5.946c0.073-0.657,0.191-1.206,0.365-1.533
				c0.238-0.453,0.638-0.722,1.094-0.738c0.292-0.015,0.474,0.035,5.971,1.802c0,0,2.443,0.779,2.453,0.784
				c0.609,0.155,1.019,0.715,1.059,1.43c0.04,0.734-0.339,1.381-0.963,1.616c0,0-1.723,0.702-1.726,0.702
				c-5.907,2.436-6.173,2.532-6.47,2.535C30.566-32.844,30.161-33.074,29.879-33.515"/>
		</g>
		<g id="g1386" transform="matrix(1.25,0,0,-1.25,448.53875,710.66595)">
			<path id="path1388" fill="#BF2519" d="M35.092-40.676c0.096,0.277,0.107,0.467,0.124,6.242c0,0,0.013,2.552,0.015,2.577
				c0.039,0.626-0.365,1.196-1.027,1.45c-0.682,0.262-1.417,0.101-1.83-0.413c0,0-1.206-1.431-1.209-1.431
				c-4.138-4.861-4.311-5.085-4.412-5.372c-0.061-0.169-0.086-0.35-0.066-0.531c0.025-0.258,0.142-0.512,0.335-0.75
				c0.959-1.14,5.561-2.833,7.031-2.582C34.563-41.394,34.935-41.106,35.092-40.676"/>
		</g>
		<g id="g1390" transform="matrix(1.25,0,0,-1.25,455.60375,709.1447)">
			<path id="path1392" fill="#BF2519" d="M38.775-39.884c1.388,0.553,4.413,4.403,4.627,5.885c0.074,0.515-0.088,0.959-0.443,1.244
				c-0.233,0.175-0.41,0.243-5.903,2.046c0,0-2.409,0.796-2.441,0.811c-0.583,0.226-1.249,0.017-1.696-0.535
				c-0.466-0.566-0.535-1.315-0.163-1.879l0.969-1.579c3.26-5.295,3.51-5.67,3.744-5.854C37.832-40.03,38.294-40.077,38.775-39.884"
				/>
		</g>
		<g id="g1394" transform="matrix(1.25,0,0,-1.25,453.455,698.8272)">
			<path id="path1396" fill="#BF2519" d="M37.655-34.505c6.243,1.513,6.484,1.592,6.73,1.754c0.379,0.254,0.569,0.681,0.535,1.199
				c0,0.017,0.003,0.035,0,0.053c-0.16,1.533-2.846,5.52-4.169,6.167c-0.469,0.225-0.938,0.21-1.328-0.051
				c-0.241-0.157-0.418-0.395-3.761-4.966c0,0-1.51-2.056-1.528-2.076c-0.398-0.484-0.405-1.178-0.015-1.772
				c0.403-0.616,1.084-0.917,1.708-0.743c0,0-0.025-0.045-0.032-0.053C36.104-34.878,36.654-34.743,37.655-34.505"/>
		</g>
		<g id="g1398" transform="matrix(1.25,0,0,-1.25,448.7125,694.92595)">
			<path id="path1400" fill="#BF2519" d="M35.182-32.471c-0.107,2.474-0.852,13.491-0.94,14.001
				c-0.125,0.462-0.488,0.793-1.006,0.923c-1.594,0.395-7.685-1.311-8.814-2.476c-0.363-0.378-0.497-0.844-0.388-1.257
				c0.178-0.365,7.725-12.239,7.725-12.239c1.115-1.809,2.025-1.528,2.324-1.434C34.38-34.861,35.285-34.58,35.182-32.471"/>
		</g>
		<g id="g1402" transform="matrix(1.25,0,0,-1.25,390.21,714.68845)">
			<path id="path1404" fill="#231F20" d="M4.683-42.774c0.786-0.729,2.276-0.935,4.086-0.567c1.696,0.335,2.749,1.093,3.761,4.313
				l5.043,15.843c0.261,0.841,0.241,1.571-0.058,2.113c-0.243,0.436-0.647,0.732-1.219,0.884c-0.898,0.246-2.02,0.221-2.727-2.193
				l-2.646-8.987c0,0-5.389,10.181-5.393,10.182c-0.34,0.68-1.338,1.168-2.354,0.765c-1.325-0.504-1.766-1.695-1.237-3.229
				c0,0,6.555-13.341,6.57-13.377c0,0,0.179-0.475,0.179-0.553c0,0,0.059-0.361,0.059-0.375c-0.013-0.514-0.185-0.946-0.492-1.235
				c-0.302-0.284-0.722-0.433-1.212-0.413c0,0-1.022,0.023-1.1,0.023c-1.051-0.129-1.711-0.732-1.817-1.663
				C4.052-41.844,4.246-42.371,4.683-42.774"/>
		</g>
		<g id="g1406" transform="matrix(1.25,0,0,-1.25,409.75875,703.3197)">
			<path id="path1408" fill="#231F20" d="M14.875-36.847h-7.02c-0.19,0.139-0.282,0.372-0.14,1.072
				c0.089,0.368,0.185,0.698,0.466,1.161c0.091,0.139,0.185,0.281,0.276,0.423c0.514,0.649,1.209,1.065,2,1.25
				c2.468,0.603,4.188-0.651,4.468-2.79C15.058-36.663,14.97-36.847,14.875-36.847z M19.189-35.624
				c-0.226,2.289-1.11,4.076-2.559,5.171c-1.543,1.171-3.726,1.544-6.311,1.082c-3.241-0.562-5.186-2.877-5.632-6.706
				c-0.548-4.577,0.205-8.025,2.185-9.976c1.493-1.475,3.701-2.061,6.387-1.698c3.83,0.539,5.553,2.641,5.553,3.971
				c0,0.978-0.591,1.748-1.46,1.865c-0.497,0.099-0.917,0-1.845-0.831c-1.338-1.166-2.889-1.635-4.263-1.287
				c-1.047,0.266-1.865,0.988-2.235,1.977c0,0-0.165,0.654-0.155,0.581c-0.112,0.59-0.164,1.174,0.2,1.412l0.098,0.066h8.414
				c0.776,0,1.169,0.1,1.396,0.345C19.423-39.138,19.387-37.671,19.189-35.624"/>
		</g>
		<g id="g1410" transform="matrix(1.25,0,0,-1.25,418.79625,693.2322)">
			<path id="path1412" fill="#231F20" d="M19.586-31.588c-0.666,0.271-1.417,0.198-2.076-0.195
				c-0.634-0.375-0.899-0.946-0.899-1.979v-20.061c0,0,0.111-0.717,0.122-0.748c0.142-0.5,0.512-0.926,1.026-1.159
				c0.57-0.264,1.227-0.259,1.815,0.016c0.732,0.317,1.163,1.049,1.163,1.956v20.099c0,0-0.127,0.971-0.127,0.989
				C20.493-32.204,20.108-31.801,19.586-31.588"/>
		</g>
		<g id="g1414" transform="matrix(1.25,0,0,-1.25,430.81125,708.65345)">
			<path id="path1416" fill="#231F20" d="M25.85-39.627c-2.778,0-3.221,2.466-3.308,4.327c-0.005,0.005-0.036,1.09-0.036,1.09
				s0.031,0.806,0.031,0.838c0.18,3.221,0.846,4.491,2.545,4.844c1.141,0.265,2.013,0.136,2.667-0.391
				c0.983-0.791,1.416-2.466,1.376-5.26C29.097-37.452,28.527-39.627,25.85-39.627z M26.056-24.898
				c-1.861,0.38-3.454,0.061-4.985-0.976c0,0-0.171-0.139-0.238-0.179l-0.137-0.069l-0.42-0.188l-0.119,0.471l-0.101,0.17
				l-0.035,0.106l-0.012,0.031c0,0-0.102,0.137-0.117,0.158c-0.44,0.684-1.634,0.998-2.711,0.383
				c-0.527-0.299-0.829-0.72-0.829-1.977v-19.69c0-1.079,0.339-1.749,1.079-2.102c0.624-0.314,1.326-0.339,1.929-0.079
				c0.512,0.225,0.889,0.621,1.029,1.103l0.124,0.844v3.407l-0.036,0.549l0.015,0.162l0.021,0.077l0.203,0.649l0.616-0.41
				c0,0,0.155-0.102,0.221-0.171l0.185-0.123c0.001-0.002,0.215-0.125,0.215-0.125c0.003,0,0.198-0.096,0.198-0.096
				c1.652-0.779,3.862-0.689,5.641,0.228c2.24,1.17,3.346,3.244,3.602,6.727C31.931-29.055,30.329-25.729,26.056-24.898"/>
		</g>
		<g id="g1418" transform="matrix(1.25,0,0,-1.25,437.5,709.8197)">
			<path id="path1420" fill="#231F20" d="M29.337-40.236h0.23c0.187,0,0.362,0.01,0.362,0.22c0,0.188-0.16,0.208-0.304,0.208h-0.287
				V-40.236z M29.148-39.639h0.492c0.322,0,0.472-0.117,0.472-0.385c0-0.241-0.153-0.342-0.355-0.363l0.388-0.593h-0.203
				l-0.367,0.576h-0.239v-0.576h-0.189V-39.639z M29.583-41.291c0.543,0,0.981,0.428,0.981,0.994c0,0.557-0.438,0.986-0.981,0.986
				c-0.545,0-0.983-0.43-0.983-0.998C28.6-40.863,29.038-41.291,29.583-41.291z M29.583-39.144c0.634,0,1.168-0.499,1.168-1.153
				c0-0.666-0.534-1.163-1.168-1.163c-0.636,0-1.168,0.497-1.168,1.151C28.415-39.642,28.947-39.144,29.583-39.144"/>
		</g>
	</g>
</g>
</svg>
